<svg width="57" height="57" viewBox="0 0 57 57" fill="none" xmlns="http://www.w3.org/2000/svg">
<path d="M56.852 38.794L52.9171 19.0422C52.8182 18.5459 52.5312 18.1174 52.1088 17.8354C51.6865 17.5535 51.1805 17.4524 50.6843 17.5514L45.6208 18.5601H45.6207C44.5942 18.7647 43.9253 19.7662 44.1298 20.7928L44.1784 21.0366C41.1436 22.0433 37.455 22.3332 32.866 18.547C30.7756 16.8224 28.0514 16.7656 26.087 18.4055L24.038 20.1162H12.8796C12.7549 19.3582 12.1758 18.7189 11.3791 18.56L6.31556 17.5512C5.81904 17.4523 5.31339 17.5534 4.89101 17.8352C4.46863 18.1172 4.18163 18.5459 4.08277 19.042L0.147874 38.794C-0.0566357 39.8205 0.612224 40.8221 1.63878 41.0267L6.70221 42.0354C6.94664 42.0845 7.19838 42.0847 7.44288 42.036C7.68739 41.9873 7.91982 41.8906 8.12676 41.7515C8.54914 41.4694 8.83626 41.0409 8.93511 40.5446L8.95905 40.4244L20.9697 52.4348C21.682 53.1472 22.6323 53.5395 23.6451 53.5395C24.658 53.5395 25.6083 53.1472 26.3204 52.4349C26.8283 51.927 27.1737 51.2984 27.3301 50.6122L28.9996 52.2817C30.475 53.7569 32.8755 53.7568 34.3507 52.2815C34.8521 51.7811 35.2021 51.1494 35.3604 50.459C36.0683 51.148 37.0031 51.5267 37.9983 51.5267C39.0113 51.5267 39.9615 51.1343 40.6739 50.4218C41.4939 49.6016 41.8581 48.4958 41.7663 47.4217C41.8733 47.4306 41.9812 47.4352 42.0897 47.4352C43.1027 47.4352 44.0528 47.0427 44.7652 46.3303C45.7636 45.3322 46.1047 43.8408 45.6931 42.5167L47.9982 40.2119L48.0645 40.5447C48.1634 41.041 48.4505 41.4695 48.8729 41.7516C49.0798 41.8907 49.3122 41.9873 49.5567 42.0361C49.8012 42.0848 50.053 42.0846 50.2974 42.0355L55.3608 41.0268C56.3876 40.8221 57.0565 39.8205 56.852 38.794ZM7.13761 40.27C7.12504 40.2788 7.11084 40.2849 7.09585 40.2881C7.08085 40.2913 7.06537 40.2914 7.05033 40.2885L1.9869 39.2797C1.95683 39.2729 1.9305 39.2549 1.91337 39.2292C1.89623 39.2036 1.8896 39.1724 1.89484 39.142L5.82973 19.3902C5.8373 19.3523 5.86135 19.3293 5.88016 19.3167C5.8953 19.3067 5.91768 19.2961 5.94551 19.2961C5.95291 19.2961 5.9603 19.2968 5.96755 19.2983L11.031 20.3071C11.0922 20.3193 11.1353 20.3837 11.123 20.4449L7.18815 40.1965C7.18506 40.2115 7.179 40.2257 7.17032 40.2384C7.16164 40.251 7.15052 40.2617 7.13761 40.27ZM43.506 45.0706C43.1299 45.4466 42.627 45.6538 42.09 45.6538C41.5529 45.6538 41.0499 45.4467 40.674 45.0707L32.0594 36.4562C31.9769 36.3727 31.8787 36.3063 31.7704 36.2609C31.6621 36.2154 31.546 36.1919 31.4286 36.1915C31.3111 36.1911 31.1948 36.214 31.0863 36.2588C30.9777 36.3035 30.8791 36.3693 30.7961 36.4523C30.713 36.5353 30.6472 36.634 30.6025 36.7425C30.5577 36.851 30.5348 36.9674 30.5352 37.0848C30.5355 37.2022 30.5591 37.3184 30.6045 37.4266C30.6499 37.5349 30.7163 37.6331 30.7998 37.7157L39.4144 46.3301C40.1952 47.1109 40.1952 48.3812 39.4144 49.1621C39.0385 49.5382 38.5355 49.7452 37.9983 49.7452C37.4613 49.7452 36.9584 49.5383 36.5825 49.1622L27.4797 40.0597C27.132 39.7118 26.5682 39.712 26.2203 40.0597C26.1376 40.1424 26.072 40.2406 26.0272 40.3486C25.9825 40.4567 25.9594 40.5725 25.9594 40.6894C25.9595 40.8064 25.9825 40.9222 26.0273 41.0302C26.072 41.1383 26.1377 41.2365 26.2204 41.3191L33.0905 48.1893L33.0911 48.1899H33.0912C33.8718 48.9705 33.8718 50.2409 33.0911 51.0217C32.3102 51.8027 31.0396 51.8025 30.2591 51.0218L22.9003 43.6632C22.733 43.4978 22.507 43.4054 22.2717 43.4061C22.0364 43.4068 21.811 43.5005 21.6446 43.6669C21.4783 43.8333 21.3845 44.0587 21.3838 44.294C21.383 44.5292 21.4754 44.7552 21.6408 44.9226L25.0612 48.3429C25.4373 48.7189 25.6442 49.2219 25.6442 49.7589C25.6442 50.296 25.4372 50.7988 25.061 51.175C24.6852 51.5509 24.1823 51.7579 23.6451 51.7579C23.108 51.7579 22.6051 51.5509 22.2291 51.1749L9.37753 38.3237L12.6499 21.8975H21.9047L19.2975 24.0743C18.1688 25.0166 17.6839 26.3018 17.9674 27.5999L20.027 37.0378C20.0523 37.154 20.1008 37.264 20.1693 37.3612C20.2379 37.4584 20.3253 37.5409 20.4262 37.6038C20.5272 37.6667 20.6398 37.7087 20.7573 37.7274C20.8747 37.7461 20.9948 37.7411 21.1103 37.7127C23.5837 37.1031 25.2374 35.911 26.1663 34.0683C26.969 32.4757 27.1285 30.6636 27.2972 28.7453C27.3186 28.5015 27.3403 28.2562 27.3634 28.0103C27.3662 27.9895 27.3696 27.9748 27.3724 27.965C27.6795 27.8356 29.1912 28.135 31.5065 30.2391L43.9091 42.8225C44.2498 43.5754 44.0924 44.4843 43.506 45.0706ZM44.652 41.0389L32.7579 28.9715C32.7467 28.9601 32.7352 28.9491 32.7234 28.9383C30.3492 26.7752 28.1139 25.7889 26.7424 26.3004C26.0971 26.5411 25.6782 27.0911 25.5934 27.809C25.5925 27.8161 25.5917 27.8231 25.591 27.8302C25.5671 28.0842 25.5448 28.3374 25.5227 28.5892C25.2339 31.8708 25.0012 34.5135 21.5632 35.7232L19.7076 27.2203C19.5199 26.3609 20.0853 25.7371 20.439 25.4419L27.2286 19.773C28.5142 18.6998 30.324 18.7594 31.7324 19.9212C36.8917 24.1778 41.2108 23.8531 44.5288 22.796L47.5799 38.1113L44.652 41.0389ZM55.0129 39.2797L49.9495 40.2885C49.9345 40.2914 49.919 40.2913 49.904 40.2881C49.889 40.2849 49.8748 40.2788 49.8622 40.27C49.8493 40.2617 49.8382 40.251 49.8295 40.2384C49.8208 40.2257 49.8148 40.2115 49.8117 40.1965L45.8768 20.4448C45.8715 20.4144 45.8781 20.3831 45.8952 20.3575C45.9124 20.3318 45.9387 20.3138 45.9688 20.307L51.0323 19.2982C51.0703 19.2905 51.1008 19.3041 51.1197 19.3167C51.1385 19.3293 51.1625 19.3522 51.1701 19.3902L55.105 39.142C55.1173 39.2032 55.0742 39.2676 55.0129 39.2797ZM27.6093 10.5871V4.35107C27.6093 4.11487 27.7031 3.88833 27.8702 3.72131C28.0372 3.55428 28.2637 3.46045 28.4999 3.46045C28.7361 3.46045 28.9627 3.55428 29.1297 3.72131C29.2967 3.88833 29.3905 4.11487 29.3905 4.35107V10.5871C29.3905 10.8233 29.2967 11.0499 29.1297 11.2169C28.9627 11.3839 28.7361 11.4777 28.4999 11.4777C28.2637 11.4777 28.0372 11.3839 27.8702 11.2169C27.7031 11.0499 27.6093 10.8233 27.6093 10.5871ZM19.5847 6.97853C19.4684 6.77408 19.4378 6.53195 19.4994 6.30498C19.561 6.07801 19.7099 5.88463 19.9136 5.76703C20.1172 5.64944 20.3592 5.61718 20.5865 5.67729C20.8139 5.73741 21.0083 5.88501 21.1272 6.0879L24.2453 11.4884C24.3235 11.6238 24.3646 11.7773 24.3647 11.9335C24.3647 12.0898 24.3237 12.2434 24.2456 12.3787C24.1675 12.5141 24.0552 12.6266 23.9199 12.7048C23.7847 12.7831 23.6312 12.8243 23.4749 12.8245C23.3184 12.8247 23.1646 12.7836 23.0291 12.7054C22.8935 12.6272 22.7809 12.5146 22.7027 12.3791L19.5847 6.97853ZM13.6228 12.0497C13.6813 11.9484 13.7591 11.8596 13.8519 11.7884C13.9447 11.7172 14.0506 11.6649 14.1636 11.6347C14.2765 11.6044 14.3944 11.5967 14.5103 11.612C14.6263 11.6273 14.7381 11.6653 14.8394 11.7238L20.24 14.8417C20.4099 14.9398 20.5427 15.0912 20.6178 15.2724C20.6928 15.4537 20.7059 15.6546 20.655 15.8441C20.6042 16.0335 20.4922 16.2009 20.3365 16.3202C20.1807 16.4395 19.99 16.504 19.7938 16.5038C19.6378 16.5037 19.4845 16.4625 19.3494 16.3843L13.9488 13.2663C13.7442 13.1482 13.595 12.9537 13.5338 12.7256C13.4727 12.4974 13.5047 12.2543 13.6228 12.0497ZM32.7547 11.4885L35.8727 6.08802C35.9312 5.98672 36.0091 5.89794 36.1018 5.82673C36.1946 5.75553 36.3005 5.7033 36.4135 5.67303C36.5265 5.64276 36.6443 5.63504 36.7603 5.65032C36.8762 5.66559 36.988 5.70356 37.0893 5.76205C37.2939 5.88015 37.4431 6.07468 37.5043 6.30284C37.5654 6.53099 37.5334 6.77408 37.4153 6.97864L34.2972 12.3792C34.2388 12.4805 34.1609 12.5693 34.0681 12.6405C33.9754 12.7117 33.8694 12.764 33.7565 12.7942C33.6435 12.8245 33.5256 12.8322 33.4097 12.8169C33.2937 12.8016 33.1819 12.7637 33.0806 12.7051C32.9793 12.6467 32.8905 12.5688 32.8193 12.476C32.7481 12.3833 32.6959 12.2773 32.6656 12.1644C32.6353 12.0514 32.6276 11.9336 32.6429 11.8176C32.6582 11.7016 32.6962 11.5898 32.7547 11.4885ZM36.7599 14.8417L42.1604 11.7238C42.3649 11.6075 42.607 11.5769 42.834 11.6385C43.061 11.7001 43.2543 11.849 43.3719 12.0527C43.4895 12.2564 43.5218 12.4983 43.4617 12.7257C43.4016 12.953 43.254 13.1474 43.0511 13.2663L37.6505 16.3843C37.5493 16.4428 37.4374 16.4808 37.3215 16.4961C37.2055 16.5114 37.0877 16.5037 36.9747 16.4734C36.8617 16.4431 36.7558 16.3909 36.663 16.3197C36.5702 16.2485 36.4924 16.1597 36.4339 16.0583C36.3158 15.8538 36.2838 15.6107 36.345 15.3825C36.4061 15.1544 36.5554 14.9599 36.7599 14.8417Z" fill="#FFD646"/>
</svg>
