<svg width="126" height="39" viewBox="0 0 126 39" fill="none" xmlns="http://www.w3.org/2000/svg">
<g clip-path="url(#clip0_89_2562)">
<path d="M15.8699 38.4421H18.1487V38.9333H15.2385V34.2842H15.8699V38.4421Z" fill="white"/>
<path d="M22.1769 38.9333H21.542V34.2842H22.1769V38.9333Z" fill="white"/>
<path d="M27.3835 37.7191L27.4893 38.1051H27.507L27.6128 37.7191L28.8192 34.291H29.5035L27.768 38.9401H27.2248L25.4893 34.291H26.1771L27.3835 37.7191Z" fill="white"/>
<path d="M33.4472 38.9333H32.8123V34.2842H33.4472V38.9333Z" fill="white"/>
<path d="M40.7666 38.9333H40.1351L37.8705 35.3824V38.9263H37.2356V34.2842H37.8705L40.1175 37.8315H40.1387V34.2842H40.7701L40.7666 38.9333Z" fill="white"/>
<path d="M47.8497 38.3086C47.7 38.5125 47.5011 38.6754 47.2712 38.7823C46.9409 38.9375 46.5781 39.0121 46.213 38.9999C45.9653 39.007 45.7187 38.9633 45.4887 38.8715C45.2587 38.7798 45.0502 38.6419 44.8761 38.4665C44.6988 38.2842 44.5605 38.068 44.4695 37.831C44.3786 37.594 44.3369 37.3411 44.3469 37.0876V36.1297C44.3362 35.8776 44.3758 35.6259 44.4636 35.3892C44.5514 35.1525 44.6856 34.9355 44.8584 34.7507C45.1979 34.4302 45.642 34.2418 46.1095 34.2199C46.5771 34.198 47.037 34.3441 47.4052 34.6314C47.5522 34.7636 47.6677 34.9266 47.7433 35.1087C47.819 35.2908 47.8529 35.4873 47.8426 35.6841V35.7016H47.2183C47.2217 35.5723 47.1991 35.4437 47.1518 35.3232C47.1046 35.2027 47.0336 35.0927 46.9431 34.9999C46.8273 34.8999 46.6929 34.8235 46.5474 34.7752C46.4019 34.7269 46.2483 34.7076 46.0954 34.7183C45.9424 34.7291 45.7931 34.7697 45.6559 34.8379C45.5187 34.9061 45.3963 35.0004 45.2958 35.1157C45.0701 35.4035 44.9539 35.7614 44.9678 36.1262V37.0911C44.956 37.4629 45.0815 37.8261 45.3205 38.1121C45.4283 38.2408 45.5639 38.3436 45.7172 38.4129C45.8705 38.4822 46.0376 38.5161 46.2059 38.5121C46.4299 38.5225 46.6535 38.4854 46.862 38.4034C46.9977 38.3474 47.1184 38.261 47.2148 38.1507V37.0981H46.1565V36.6069H47.8462L47.8497 38.3086Z" fill="white"/>
<path d="M56.5307 38.9333H55.8958V34.2842H56.5307V38.9333Z" fill="white"/>
<path d="M63.8502 38.9333H63.2152L60.9682 35.3824H60.9471V38.9263H60.3157V34.2842H60.9471L63.1976 37.8315V34.2842H63.8325L63.8502 38.9333Z" fill="white"/>
<path d="M71.1025 38.9333H70.4711L68.2241 35.3824H68.2029V38.9263H67.5715V34.2842H68.2065L70.457 37.8315V34.2842H71.0884L71.1025 38.9333Z" fill="white"/>
<path d="M78.3937 37.0178C78.408 37.5363 78.2181 38.0399 77.8646 38.4213C77.6879 38.6069 77.4736 38.753 77.2357 38.8498C76.9979 38.9465 76.7421 38.9919 76.4853 38.9827C76.2359 38.9915 75.9875 38.9458 75.7578 38.8488C75.528 38.7518 75.3224 38.6059 75.1555 38.4213C74.8112 38.0355 74.6282 37.5334 74.644 37.0178V36.1897C74.6296 35.6743 74.8124 35.1727 75.1555 34.7862C75.3222 34.6011 75.5277 34.4547 75.7575 34.3571C75.9872 34.2595 76.2357 34.2131 76.4853 34.2213C76.7424 34.2125 76.9984 34.2584 77.2362 34.3558C77.474 34.4532 77.6882 34.5999 77.8646 34.7862C78.2181 35.1675 78.408 35.6711 78.3937 36.1897V37.0178ZM77.7623 36.1827C77.7769 35.8009 77.6515 35.4268 77.4095 35.13C77.2952 34.9967 77.1521 34.8908 76.9908 34.8204C76.8295 34.7499 76.6543 34.7166 76.4783 34.723C76.3095 34.7175 76.1418 34.7515 75.9887 34.8222C75.8355 34.8929 75.7012 34.9983 75.5964 35.13C75.3671 35.4322 75.2511 35.8045 75.2684 36.1827V37.0178C75.2523 37.3958 75.3682 37.7677 75.5964 38.0704C75.7 38.2034 75.8341 38.3098 75.9876 38.3806C76.141 38.4514 76.3093 38.4846 76.4783 38.4774C76.6545 38.4854 76.8302 38.4529 76.9918 38.3823C77.1533 38.3117 77.2963 38.2049 77.4095 38.0704C77.6515 37.7737 77.7769 37.3996 77.7623 37.0178V36.1827Z" fill="white"/>
<path d="M83.2827 37.7191L83.3885 38.1051L83.4944 37.7191L84.7007 34.291H85.3851L83.6496 38.9401H83.1063L81.3708 34.291H82.0587L83.2827 37.7191Z" fill="white"/>
<path d="M90.8174 37.7368H89.0537L88.6375 38.9333H87.9919L89.6781 34.2842H90.2178L91.8686 38.9333H91.2231L90.8174 37.7368ZM89.2442 37.2105H90.6552L89.9744 35.214H89.9532L89.2442 37.2105Z" fill="white"/>
<path d="M98.0416 34.7789H96.5037V38.9333H95.8687V34.7789H94.3484V34.2842H98.0416V34.7789Z" fill="white"/>
<path d="M102.035 38.9333H101.4V34.2842H102.035V38.9333Z" fill="white"/>
<path d="M109.389 37.0173C109.404 37.5366 109.213 38.0409 108.857 38.4208C108.681 38.6067 108.467 38.753 108.23 38.8498C107.993 38.9467 107.737 38.9918 107.481 38.9822C107.231 38.9913 106.983 38.9457 106.753 38.8487C106.523 38.7517 106.318 38.6056 106.151 38.4208C105.807 38.0351 105.624 37.5329 105.64 37.0173V36.1892C105.625 35.6738 105.808 35.1722 106.151 34.7857C106.318 34.6003 106.523 34.4536 106.753 34.356C106.983 34.2583 107.231 34.2122 107.481 34.2208C107.737 34.2119 107.993 34.2577 108.23 34.3551C108.468 34.4526 108.681 34.5994 108.857 34.7857C109.213 35.1657 109.404 35.6699 109.389 36.1892V37.0173ZM108.772 36.1892C108.787 35.8074 108.661 35.4333 108.419 35.1366C108.305 35.0033 108.162 34.8974 108.001 34.8269C107.839 34.7564 107.664 34.7232 107.488 34.7296C107.319 34.7224 107.151 34.7556 106.997 34.8264C106.844 34.8972 106.71 35.0036 106.606 35.1366C106.377 35.4387 106.261 35.8111 106.278 36.1892V37.0173C106.262 37.3953 106.378 37.7673 106.606 38.0699C106.71 38.203 106.844 38.3093 106.997 38.3801C107.151 38.451 107.319 38.4842 107.488 38.477C107.664 38.485 107.84 38.4524 108.001 38.3818C108.163 38.3112 108.306 38.2045 108.419 38.0699C108.661 37.7732 108.787 37.3991 108.772 37.0173V36.1892Z" fill="white"/>
<path d="M116.462 38.9333H115.827L113.576 35.3824H113.559V38.9263H112.924V34.2842H113.559L115.827 37.8315H115.848V34.2842H116.479L116.462 38.9333Z" fill="white"/>
<path d="M82.3374 23.3332C81.0054 24.638 79.315 25.5215 77.4792 25.8725C75.6433 26.2235 73.7441 26.0261 72.0208 25.3054C70.2975 24.5847 68.8271 23.3728 67.795 21.8224C66.7628 20.272 66.215 18.4524 66.2205 16.5928C66.2205 14.0802 67.2239 11.6706 69.01 9.89392C70.7962 8.11726 73.2186 7.11914 75.7446 7.11914C78.2114 7.11914 80.5478 8.12031 82.7536 10.1226L80.9511 11.7542C79.2861 10.2852 77.5518 9.55072 75.7481 9.55072C73.868 9.55165 72.0651 10.295 70.7356 11.6174C69.4062 12.9398 68.6589 14.7332 68.658 16.6033C68.657 17.5303 68.8397 18.4483 69.1956 19.305C69.5514 20.1616 70.0735 20.9402 70.7319 21.5961C71.3903 22.252 72.1722 22.7725 73.0329 23.1277C73.8936 23.483 74.8163 23.666 75.7481 23.6665C77.2528 23.7242 78.7304 23.2562 79.9246 22.3437V16.7297H82.3374V23.3332Z" fill="#FDCA0F"/>
<path d="M86.9584 7.29492V25.8669H84.5315V7.29492H86.9584Z" fill="#FDCA0F"/>
<path d="M99.4243 14.7648V13.9297H101.851V25.8771H99.4243V24.3859C98.9119 24.9509 98.2862 25.4029 97.5876 25.7129C96.8889 26.0229 96.1328 26.184 95.3678 26.1859C94.0545 26.1862 92.7707 25.7991 91.6787 25.0735C90.5867 24.3479 89.7356 23.3165 89.233 22.1096C88.7304 20.9028 88.5989 19.5748 88.8552 18.2937C89.1115 17.0125 89.744 15.8357 90.6728 14.9122C91.2809 14.2878 92.0113 13.794 92.8188 13.4615C93.6264 13.129 94.4939 12.9647 95.3678 12.9789C96.1316 12.9796 96.8869 13.1388 97.5854 13.4463C98.2839 13.7539 98.9102 14.2029 99.4243 14.7648ZM99.4243 20.4596V18.7052C99.2691 17.9282 98.8789 17.2169 98.3061 16.6666C97.5243 15.8935 96.4666 15.4596 95.3642 15.4596C94.2618 15.4596 93.2042 15.8935 92.4224 16.6666C91.842 17.2453 91.4471 17.9821 91.2877 18.784C91.1282 19.5858 91.2114 20.4167 91.5267 21.1716C91.8419 21.9264 92.3751 22.5714 93.0588 23.0248C93.7425 23.4783 94.546 23.72 95.3678 23.7192C95.9142 23.7262 96.4563 23.6228 96.9614 23.4154C97.4664 23.2079 97.9239 22.9007 98.3061 22.5122C98.8815 21.9581 99.2718 21.2416 99.4243 20.4596Z" fill="#FDCA0F"/>
<path d="M114.342 14.7543V7.30518H116.765V25.8666H114.342V24.3859C113.827 24.9519 113.199 25.4045 112.498 25.7145C111.797 26.0246 111.038 26.1851 110.271 26.1859C109.399 26.1859 108.535 26.0147 107.729 25.6821C106.923 25.3496 106.191 24.8622 105.574 24.2478C104.958 23.6335 104.47 22.9042 104.137 22.1019C103.804 21.2995 103.634 20.4397 103.636 19.5718C103.635 18.7042 103.805 17.8449 104.138 17.0429C104.471 16.2409 104.959 15.5121 105.576 14.8981C106.192 14.2841 106.924 13.7971 107.73 13.4647C108.535 13.1324 109.399 12.9613 110.271 12.9613C111.038 12.9612 111.796 13.1207 112.497 13.4294C113.198 13.7382 113.827 14.1895 114.342 14.7543ZM114.342 20.4596V18.6841C114.185 17.9036 113.79 17.1903 113.209 16.642C112.629 16.0652 111.889 15.6726 111.084 15.5138C110.278 15.3551 109.444 15.4373 108.686 15.7501C107.928 16.0629 107.28 16.5922 106.824 17.2712C106.368 17.9502 106.125 18.7483 106.125 19.5648C106.125 20.3813 106.368 21.1795 106.824 21.8585C107.28 22.5375 107.928 23.0668 108.686 23.3796C109.444 23.6924 110.278 23.7746 111.084 23.6158C111.889 23.4571 112.629 23.0645 113.209 22.4876C113.787 21.9431 114.182 21.2351 114.342 20.4596Z" fill="#FDCA0F"/>
<path d="M15.4078 16.1581C15.4827 15.5967 15.6006 15.0419 15.7606 14.4984C16.1387 13.0404 16.6992 11.6352 17.4291 10.316C17.9289 9.4076 18.5199 8.55179 19.1928 7.76161C19.9951 6.82316 20.9488 6.02395 22.0147 5.39669C23.251 4.67021 24.6535 4.2704 26.0889 4.23529C26.9369 4.18301 27.7863 4.31471 28.5781 4.62127C29.3699 4.92783 30.0852 5.40193 30.6746 6.01073C31.0054 6.36113 31.2802 6.75992 31.4894 7.19319C31.5423 7.29845 31.5811 7.41073 31.627 7.52301L31.6587 7.60722V7.64933L31.694 7.75108L31.7258 7.85985L31.761 7.97915L31.8104 8.19318C31.8457 8.34406 31.8598 8.45634 31.8774 8.57564C31.9739 9.45251 31.8515 10.3395 31.5212 11.1581C30.974 12.4171 30.1705 13.5497 29.1613 14.4844C28.9391 14.702 28.7204 14.909 28.4982 15.1055L28.1454 15.3967L27.8279 15.6528C27.3729 16.0248 26.939 16.3546 26.491 16.6634C25.6585 17.2522 24.7823 17.7777 23.8702 18.2353C23.1004 18.626 22.2992 18.9523 21.475 19.2107C20.7695 19.4353 20.1064 19.5616 19.5773 19.6844C19.0482 19.8072 18.6213 19.8388 18.3391 19.8809C18.0569 19.923 17.8947 19.9195 17.8947 19.9195L18.2721 19.6879L19.3303 19.0353C19.7748 18.7581 20.3004 18.3932 20.8965 17.9827C21.5403 17.5298 22.1607 17.0449 22.7555 16.53C23.4081 15.9686 24.0889 15.33 24.7767 14.6283C25.1294 14.2774 25.4822 13.9055 25.8067 13.537L26.0783 13.2353L26.3217 12.9476C26.491 12.7546 26.6533 12.5616 26.812 12.3616C27.417 11.6452 27.8942 10.8311 28.223 9.95459C28.3314 9.66698 28.3642 9.35658 28.3183 9.05284C28.3201 9.03417 28.3201 9.01536 28.3183 8.99669C28.3183 8.99669 28.3183 8.93354 28.2936 8.90196L28.2583 8.79669L28.2759 8.85284C28.2685 8.82426 28.2566 8.79702 28.2406 8.77213C28.1888 8.66272 28.1184 8.56302 28.0325 8.4774C27.8216 8.26305 27.5648 8.09875 27.2812 7.99669C26.9098 7.8755 26.522 7.81161 26.1312 7.80722C25.2426 7.78504 24.3603 7.9613 23.5492 8.32301C22.6962 8.69898 21.8987 9.18887 21.1787 9.77915C20.4681 10.329 19.7984 10.9294 19.1751 11.5756C17.9899 12.8177 17.0587 13.9897 16.4167 14.8177C15.7747 15.6458 15.4078 16.1581 15.4078 16.1581Z" fill="white"/>
<path d="M17.4679 19.049C17.5292 18.9162 17.5987 18.7873 17.676 18.663C17.8914 18.2999 18.1457 17.9611 18.4344 17.6525C18.8797 17.169 19.3633 16.722 19.8807 16.3156C20.5429 15.7916 21.2329 15.3031 21.9477 14.8525C22.8395 14.3062 23.7925 13.8658 24.7873 13.5402C25.9658 13.1408 27.2083 12.9612 28.4523 13.0104C29.1757 13.047 29.8893 13.1925 30.5688 13.4419C31.3182 13.7195 32.0051 14.1416 32.59 14.6841C33.1898 15.2352 33.6752 15.898 34.0186 16.6349C34.3908 17.4185 34.5755 18.2772 34.5583 19.1437C34.4929 20.6508 34.004 22.1095 33.1473 23.3542C32.3228 24.5766 31.1425 25.5192 29.7645 26.056C28.5562 26.5109 27.2567 26.6745 25.9725 26.5332C25.4858 26.4911 24.9143 26.4139 24.3923 26.3191C23.8702 26.2244 23.401 26.1086 22.946 25.9683C21.4925 25.5482 20.1142 24.9041 18.8612 24.0595C18.5147 23.8282 18.1825 23.5763 17.8665 23.3051L17.5384 23.0139L17.9617 23.1297C18.2333 23.2069 18.639 23.3016 19.1434 23.4209C20.5074 23.7219 21.8957 23.9015 23.2917 23.9577C23.715 23.9577 24.1524 23.9577 24.6039 23.9577C25.0554 23.9577 25.4611 23.9191 25.9937 23.863C26.8562 23.7988 27.6965 23.56 28.4629 23.1612C28.6415 23.0564 28.8124 22.9391 28.9744 22.8104L29.2248 22.6174L29.433 22.4244C29.7247 22.123 29.9814 21.7899 30.1984 21.4314C30.6386 20.6987 30.8917 19.8699 30.9356 19.0174C30.937 18.6985 30.8709 18.3829 30.7416 18.0911C30.5891 17.761 30.3855 17.4568 30.1384 17.1893C29.8865 16.9289 29.5919 16.7129 29.2672 16.5507C28.8976 16.3866 28.5089 16.2687 28.1102 16.1998C27.2133 16.0663 26.3015 16.0663 25.4046 16.1998C24.5243 16.3105 23.6548 16.4936 22.8049 16.7472C22.0077 16.9823 21.2211 17.2805 20.5615 17.5156C19.9018 17.7507 19.3233 17.9928 18.8648 18.2174C18.5053 18.3897 18.1577 18.5854 17.8242 18.8034L17.4679 19.049Z" fill="white"/>
<path d="M12.868 14.4668H13.0021C13.1282 14.4799 13.2532 14.5022 13.376 14.5335C13.5708 14.574 13.7628 14.6268 13.951 14.6914C14.1921 14.7748 14.4278 14.8732 14.6565 14.9861C14.7834 15.0493 14.9175 15.1159 15.0515 15.1931L15.4537 15.4493C15.5971 15.5413 15.7338 15.6433 15.8628 15.7545C15.9933 15.8668 16.138 15.9756 16.265 16.1054C16.5357 16.3665 16.7803 16.6532 16.9951 16.9615C17.1126 17.1178 17.221 17.2806 17.3197 17.4493L17.5842 17.9721C17.6733 18.1469 17.7442 18.3303 17.7959 18.5194C17.8594 18.7054 17.9123 18.8949 17.9687 19.0773C18.0498 19.4528 18.0851 19.8282 18.131 20.1896C18.1768 20.551 18.131 20.8914 18.0957 21.2422C18.0574 21.5448 18.0009 21.8447 17.9264 22.1405L17.8347 22.5335C17.8029 22.6563 17.7465 22.765 17.7077 22.8843C17.623 23.0949 17.5419 23.2773 17.4749 23.4247C17.3408 23.7194 17.2526 23.8808 17.2526 23.8808C17.2526 23.8808 17.2526 23.6914 17.2526 23.3721C17.2526 23.2107 17.2526 23.0212 17.2526 22.8036C17.2626 22.5625 17.2556 22.321 17.2315 22.0808C17.2103 21.8177 17.2315 21.537 17.1856 21.2422C17.1398 20.9475 17.1045 20.6493 17.0657 20.337C17.0269 20.0247 16.9175 19.7194 16.8364 19.4071C16.78 19.2563 16.72 19.1054 16.6671 18.951C16.6222 18.7941 16.5607 18.6424 16.4837 18.4984L16.272 18.0563C16.2015 17.9089 16.1062 17.7791 16.0251 17.6387C15.858 17.3667 15.6754 17.1042 15.4783 16.8528C15.3866 16.7264 15.2738 16.6212 15.1785 16.5019C15.0838 16.3863 14.9825 16.2762 14.8752 16.1721L14.5894 15.8528C14.4907 15.7545 14.3848 15.6703 14.2896 15.5791C14.1026 15.3966 13.9086 15.2528 13.7428 15.1089C13.5771 14.965 13.4218 14.8528 13.2913 14.758C13.1608 14.6633 13.0656 14.5861 12.9915 14.537L12.868 14.4668Z" fill="white"/>
<path d="M16.7059 16.593C16.4289 16.2787 16.1217 15.9919 15.7888 15.7368C15.0833 17.3438 12.9457 21.2666 9.36536 20.7473C9.63059 21.3512 9.9875 21.9109 10.4236 22.407C11.637 22.3017 14.8576 21.3473 16.7059 16.593Z" fill="#FDCA0F"/>
<path d="M17.6266 19.144C17.4204 18.6269 17.1578 18.1339 16.8436 17.6738C16.3109 19.4738 14.974 22.3826 11.7676 23.751C12.2332 24.2212 12.6424 24.6422 12.9951 25.0247C14.392 24.5194 16.6249 23.1054 17.6266 19.144Z" fill="white"/>
<path d="M14.0498 26.2243C15.108 27.505 15.3408 28.1857 15.3444 28.8349C15.3444 28.8349 18.5473 23.8629 18.1663 20.3296C17.6035 22.7463 16.1301 24.8561 14.0498 26.2243Z" fill="#FDCA0F"/>
<path d="M15.108 15.7404C14.6005 15.3004 14.0387 14.9266 13.436 14.6281C13.6973 13.8434 13.6689 12.9917 13.356 12.2259C13.0432 11.4601 12.4662 10.8302 11.7287 10.4492C11.6617 10.4141 11.5912 10.386 11.5206 10.3544C11.9968 9.21409 12.8646 7.6176 14.0357 7.35444C15.8876 6.9369 15.3055 6.20707 14.6001 6.37199C13.8946 6.5369 12.5365 7.38251 11.2666 10.2562C10.8343 10.1057 10.3765 10.0413 9.91915 10.0667C9.95795 9.13339 10.1555 7.96146 10.8469 7.47374C12.0638 6.63865 11.4289 6.28076 10.9668 6.60357C10.5047 6.92637 9.83449 7.84918 9.71103 10.0808C8.96688 10.1669 8.27017 10.4883 7.72338 10.9977C7.17659 11.5071 6.8086 12.1777 6.67355 12.9106C6.53849 13.6436 6.64349 14.4004 6.97312 15.0696C7.30274 15.7388 7.83957 16.2851 8.50464 16.6281C8.70589 16.7336 8.91746 16.8182 9.13606 16.8808C8.96405 17.477 8.88319 18.0956 8.89619 18.7158C10.0955 19.0702 12.9351 19.4071 15.108 15.7404Z" fill="white"/>
<path d="M39.0981 23.1615C39.5037 23.5123 40.2374 23.6948 41.3027 23.6948C41.851 23.704 42.3954 23.6017 42.9025 23.3942C43.4096 23.1866 43.8687 22.8782 44.2517 22.4878C44.354 22.3825 44.5621 22.1369 44.8725 21.786L47.2853 22.6457C46.8947 23.2121 46.4657 23.7514 46.0013 24.2597C44.7547 25.4978 43.0647 26.1927 41.303 26.1914C39.5414 26.1901 37.8524 25.4927 36.6077 24.2527C35.363 23.0127 34.6645 21.3316 34.6658 19.5793C34.6671 17.827 35.3682 16.147 36.6148 14.9088C37.7661 13.7641 39.2993 13.0788 40.9243 12.9824C42.5493 12.8861 44.1535 13.3854 45.4334 14.386C45.6274 14.5509 45.8214 14.7369 46.0048 14.9088C46.0824 14.986 46.3046 15.2316 46.6715 15.6387L45.4545 16.8422L39.0981 23.1615ZM43.1335 15.7369C42.863 15.5311 42.2528 15.427 41.3027 15.4246C40.2034 15.432 39.1515 15.8714 38.3765 16.647C37.6014 17.4225 37.166 18.4714 37.1651 19.565C37.1651 20.5006 37.2697 21.1077 37.479 21.386L43.1335 15.7369Z" fill="#FDCA0F"/>
<path d="M90.7821 31.7089L54.6894 31.5159L34.3431 31.4036L23.8737 31.3475L18.6037 31.3194L15.9652 31.3019C15.0763 31.3019 14.2015 31.3019 13.3761 31.2352C10.0038 30.951 6.70215 29.5335 4.4587 27.0808C3.33248 25.867 2.48937 24.4209 1.9895 22.8457C1.7431 22.0636 1.57878 21.2581 1.49919 20.4422L1.45333 19.8457C1.45333 19.6422 1.45333 19.4177 1.45333 19.2036V17.9335C1.43815 17.0951 1.4664 16.2566 1.53799 15.4212C1.61956 14.6086 1.76582 13.8037 1.97539 13.0142C2.6006 10.6946 3.77566 8.55799 5.40208 6.78327C7.0285 5.00856 9.0589 3.6475 11.3231 2.81416C12.0548 2.55148 12.8045 2.34158 13.5665 2.18609C14.3183 2.05018 15.0784 1.96461 15.8417 1.92995C17.422 1.90188 19.0588 1.92995 20.6355 1.92995L29.948 1.97907L47.0066 2.0703L50.8868 2.09135H51.8286H52.2943H52.714C53.2636 2.11591 53.81 2.18752 54.3472 2.30539C56.3683 2.74525 58.1958 3.81456 59.5643 5.35802C60.7669 6.70349 61.5747 8.3518 61.8995 10.1229C62.0375 10.9033 62.0789 11.6975 62.0229 12.4878C61.9939 12.855 61.9456 13.2204 61.8783 13.5826L61.7725 14.0773C61.7196 14.2668 61.6702 14.4528 61.6173 14.6387C60.9832 16.81 60.074 18.8922 58.9117 20.8352C58.6944 21.1784 58.4589 21.5098 58.2062 21.8282C57.984 22.0949 57.8147 22.2949 57.7018 22.4212C57.5889 22.5475 57.5572 22.5615 57.5854 22.5475C57.2023 22.9291 56.7461 23.2304 56.2438 23.4335C55.7415 23.6366 55.2033 23.7374 54.6612 23.7299C53.5912 23.7299 52.8563 23.5522 52.4565 23.1966L58.8059 16.8808L60.0193 15.6633C59.6666 15.2528 59.4338 15.0106 59.3562 14.9335C59.1692 14.7475 58.9787 14.5826 58.7847 14.4107C57.8038 13.6431 56.6255 13.1656 55.3846 13.0325C54.1437 12.8995 52.8902 13.1164 51.7674 13.6584C50.6445 14.2004 49.6975 15.0456 49.0347 16.0975C48.3719 17.1495 48.0199 18.3657 48.019 19.6071C48.0081 20.9222 48.3921 22.2105 49.1219 23.3071C49.8517 24.4036 50.894 25.2585 52.1153 25.762C53.3366 26.2656 54.6813 26.395 55.977 26.1336C57.2726 25.8722 58.4604 25.2319 59.3879 24.2949C60.243 23.3611 60.9561 22.3078 61.5044 21.1685C62.0416 20.1576 62.5129 19.1133 62.9154 18.0422C63.2681 17.1299 63.5785 16.2001 63.8572 15.2633C64.4319 13.3039 64.4897 11.2304 64.0251 9.24234C63.5605 7.25431 62.5891 5.41874 61.2046 3.91241C59.5142 2.04857 57.2723 0.767063 54.8023 0.252757C54.1484 0.116361 53.484 0.0365304 52.8163 0.0141602H52.3084H50.8974L47.0172 0.0352119L29.9585 0.126441L20.6355 0.175563C19.0376 0.193107 17.4608 0.175564 15.7994 0.221178C14.9365 0.268574 14.0782 0.37881 13.2314 0.551002C12.3842 0.730815 11.5518 0.973602 10.7411 1.27732C8.24572 2.21951 6.01422 3.7438 4.23413 5.72206C2.45405 7.70032 1.1774 10.0747 0.511503 12.6457C0.292037 13.5158 0.141076 14.4015 0.059992 15.2949C-0.0281939 16.1931 2.48565e-05 17.0914 2.48565e-05 17.9405V19.2528C2.48565e-05 19.4703 2.47494e-05 19.6773 0.0247168 19.9054L0.0811557 20.6071C0.182207 21.5167 0.376038 22.4138 0.659655 23.2843C1.23574 25.0399 2.19178 26.6484 3.46044 27.9966C6.01078 30.7019 9.65109 32.1756 13.2702 32.4563C13.7253 32.4878 14.1803 32.5054 14.6354 32.5054H15.9581H18.5967L23.8667 32.4563L34.3361 32.4001L54.6929 32.2914L90.7821 32.0843L125.993 31.8984L90.7821 31.7089ZM50.5164 19.6177C50.5174 18.5211 50.9552 17.4696 51.7341 16.6935C52.513 15.9174 53.5693 15.4801 54.6717 15.4773C55.6124 15.4773 56.2215 15.5814 56.499 15.7896L50.8339 21.4387C50.6223 21.1627 50.5164 20.5557 50.5164 19.6177Z" fill="white"/>
</g>
<defs>
<clipPath id="clip0_89_2562">
<rect width="126" height="39" fill="white"/>
</clipPath>
</defs>
</svg>
