<svg width="57" height="57" viewBox="0 0 57 57" fill="none" xmlns="http://www.w3.org/2000/svg">
<g clip-path="url(#clip0_32_518)">
<path d="M29.9095 27.092C29.8061 26.9884 29.6833 26.9063 29.5481 26.8503C29.413 26.7943 29.2681 26.7654 29.1218 26.7654C28.9755 26.7654 28.8307 26.7943 28.6955 26.8503C28.5604 26.9063 28.4376 26.9884 28.3342 27.092C27.9 27.5261 27.9 28.2308 28.3342 28.6661C28.7695 29.1003 29.4742 29.1003 29.9095 28.6661C30.3437 28.2308 30.3437 27.5261 29.9095 27.092ZM44.0783 12.922C41.903 10.7468 38.3814 10.7466 36.206 12.922C34.0363 15.0917 34.0362 18.623 36.2063 20.7945C38.3768 22.9636 41.9081 22.9645 44.0783 20.7942C46.2534 18.6191 46.2539 15.0975 44.0783 12.922ZM42.5039 19.2197C41.2022 20.5216 39.0831 20.5216 37.7807 19.2199C36.4787 17.9172 36.4786 15.7982 37.7805 14.4964C39.0856 13.1913 41.1986 13.1911 42.5039 14.4964C43.809 15.8014 43.8092 17.9145 42.5039 19.2197Z" fill="#FFD646"/>
<path d="M56.6738 0.32608C56.5658 0.217763 56.4365 0.13295 56.2942 0.0769686C56.1518 0.0209875 55.9994 -0.0049522 55.8466 0.000779072C55.5949 0.00979665 49.6015 0.250711 42.4771 2.76884C36.7682 4.78455 32.0097 7.67051 28.3337 11.3466C27.5004 12.1811 26.7023 13.0501 25.9415 13.9512C22.3069 11.8117 19.3943 12.4826 17.5531 13.4679C13.3136 15.7368 10.6895 21.8972 10.6895 26.3036C10.6897 26.5988 10.807 26.8819 11.0158 27.0906C11.2246 27.2994 11.5076 27.4167 11.8028 27.4169C11.9491 27.4169 12.0939 27.3881 12.229 27.3322C12.3641 27.2762 12.4869 27.1942 12.5903 27.0908C14.8261 24.855 17.5838 24.9948 18.4846 25.1133L18.8745 25.5032C18.1072 27.3289 17.4892 29.1445 17.0358 30.9103C16.8722 31.5493 16.9274 32.2255 17.1706 32.844C16.0988 33.338 15.0646 34.0633 14.1642 34.9637C11.2985 37.8295 10.7166 44.8136 10.6932 45.1095C10.6806 45.27 10.7029 45.4313 10.7585 45.5823C10.8142 45.7333 10.902 45.8704 11.0158 45.9843C11.1296 46.0981 11.2668 46.1859 11.4178 46.2416C11.5688 46.2973 11.7301 46.3196 11.8906 46.3069C12.1865 46.2837 19.1708 45.7018 22.0365 42.8361C22.9365 41.936 23.6617 40.902 24.1557 39.8303C24.8105 40.0878 25.4845 40.1195 26.0906 39.9642C27.8556 39.511 29.6709 38.8932 31.4969 38.1258L31.8868 38.5156C32.0051 39.4166 32.1449 42.1743 29.9093 44.4099C29.7536 44.5656 29.6476 44.764 29.6047 44.9799C29.5617 45.1958 29.5838 45.4196 29.668 45.623C29.7523 45.8265 29.895 46.0003 30.078 46.1226C30.2611 46.2449 30.4763 46.3103 30.6965 46.3103C35.1028 46.3103 41.2632 43.6862 43.532 39.4467C44.5174 37.6056 45.1883 34.6931 43.0488 31.0583C43.9499 30.2975 44.8188 29.4994 45.6534 28.6661C49.3294 24.99 52.2153 20.2316 54.231 14.5231C56.7492 7.39831 56.99 1.40485 56.9991 1.15325C57.0102 0.844312 56.8923 0.544728 56.6738 0.32608ZM13.1785 23.9091C13.8701 20.5622 15.8788 16.8896 18.6041 15.431C20.4253 14.4564 22.416 14.5519 24.5325 15.7105C22.7241 18.0904 21.1572 20.6445 19.8551 23.335C19.8385 23.3248 19.6381 23.0729 19.2658 22.9889C19.1128 22.9543 16.1671 22.3207 13.1785 23.9091ZM20.4621 41.2615C18.9313 42.7923 15.3404 43.5997 13.0708 43.9293C13.4005 41.6595 14.208 38.0688 15.7386 36.5381C16.5959 35.6809 17.5898 35.031 18.5889 34.6649L22.3353 38.4113C21.9692 39.4104 21.3194 40.4043 20.4621 41.2615ZM25.5375 37.8074C25.2153 37.8899 24.8422 37.7687 24.5647 37.4918L22.3842 35.3114L19.5091 32.4361C19.2314 32.1579 19.1103 31.7849 19.1926 31.4632C19.5492 30.0745 20.0155 28.6497 20.5826 27.2113L29.7889 36.4175C28.3502 36.9848 26.9257 37.451 25.5375 37.8074ZM41.5692 38.3961C40.1106 41.1213 36.4381 43.1301 33.0913 43.8215C34.1584 41.8135 34.3937 39.2573 34.0038 37.7073C33.9133 37.3472 33.6784 37.1662 33.6652 37.145C36.3557 35.8427 38.9097 34.2758 41.2897 32.4675C42.4482 34.5843 42.5437 36.5752 41.5692 38.3961ZM44.0792 27.0917C43.061 28.1083 41.9893 29.0697 40.8685 29.972C38.1586 32.154 35.1758 34.0023 31.9936 35.4736L21.5266 25.0067C22.9979 21.8243 24.8462 18.8416 27.028 16.132C27.9369 15.0039 28.9059 13.9236 29.9086 12.921C33.2067 9.62276 37.4632 6.99786 42.5634 5.1084L51.8918 14.4368C50.0025 19.5369 47.3776 23.7934 44.0792 27.0917ZM52.6928 12.0888L44.9114 4.3074C49.1509 2.99061 52.8391 2.49753 54.68 2.3203C54.5026 4.16156 54.0095 7.84975 52.6928 12.0888Z" fill="#FFD646"/>
<path d="M26.7599 45.9841C26.3249 45.5493 25.62 45.5496 25.1854 45.9843L22.037 49.1338C21.6024 49.5686 21.6025 50.2735 22.0372 50.7082C22.4722 51.1428 23.1771 51.1428 23.6118 50.7079L26.7601 47.5585C27.1947 47.1236 27.1946 46.4187 26.7599 45.9841ZM11.0162 30.2403C10.5816 29.8054 9.87677 29.8054 9.44181 30.2401L6.29234 33.3884C5.85749 33.823 5.85738 34.528 6.292 34.9628C6.72651 35.3974 7.43133 35.3979 7.8664 34.963L11.0159 31.8147C11.4507 31.3801 11.4508 30.6751 11.0162 30.2403ZM18.8881 47.5595C18.4536 47.1247 17.7486 47.1247 17.3137 47.5594L9.77234 55.0996C9.33749 55.5344 9.33749 56.2393 9.77223 56.674C10.2067 57.1088 10.9118 57.109 11.3466 56.6741L18.888 49.1339C19.3228 48.6992 19.3228 47.9942 18.8881 47.5595ZM9.98186 47.5595C9.54724 47.1247 8.84219 47.1247 8.40746 47.5594L0.866091 55.0996C0.431243 55.5344 0.431243 56.2393 0.86598 56.674C1.30049 57.1088 2.00553 57.109 2.44038 56.6741L9.98175 49.1339C10.4166 48.6992 10.4166 47.9942 9.98186 47.5595ZM9.44069 38.112C9.00607 37.6773 8.30103 37.6773 7.86629 38.1121L0.326038 45.6534C-0.108698 46.0883 -0.108698 46.7931 0.32615 47.2279C0.760886 47.6627 1.46582 47.6627 1.90055 47.2278L9.44081 39.6865C9.87554 39.2516 9.87554 38.5468 9.44069 38.112ZM34.6321 22.368C34.1973 21.9333 33.4926 21.9333 33.0576 22.368L31.4834 23.9422C31.0487 24.377 31.0487 25.0819 31.4834 25.5167C31.9183 25.9515 32.6231 25.9515 33.058 25.5167L34.6321 23.9426C35.0669 23.5078 35.0669 22.8029 34.6321 22.368Z" fill="#FFD646"/>
</g>
<defs>
<clipPath id="clip0_32_518">
<rect width="57" height="57" fill="white"/>
</clipPath>
</defs>
</svg>
