<svg width="57" height="57" viewBox="0 0 57 57" fill="none" xmlns="http://www.w3.org/2000/svg">
<path fill-rule="evenodd" clip-rule="evenodd" d="M40.3243 25.1952C40.3243 18.9169 35.4079 13.7659 29.2177 13.3935V40.6234H33.6558C33.8057 40.6234 33.9555 40.6384 34.0996 40.6649C35.0448 37.5549 36.3704 35.2073 37.5462 33.1278C39.0333 30.4897 40.3243 28.2108 40.3243 25.1952ZM33.8114 46.3819C33.8114 45.9336 33.4483 45.5686 32.9987 45.5686H24.0016C23.5519 45.5686 23.1888 45.9336 23.1888 46.3819C23.1888 46.4887 23.2098 46.5943 23.2506 46.693C23.2915 46.7916 23.3513 46.8812 23.4268 46.9567C23.5023 47.0321 23.5919 47.092 23.6905 47.1328C23.7891 47.1737 23.8948 47.1947 24.0016 47.1946H32.9987C33.1054 47.1947 33.2111 47.1737 33.3097 47.1328C33.4083 47.092 33.4979 47.0321 33.5734 46.9567C33.6489 46.8812 33.7087 46.7916 33.7496 46.693C33.7904 46.5943 33.8114 46.4887 33.8114 46.3819ZM31.3272 48.632H25.673C26.0246 49.8643 27.1659 50.7762 28.4973 50.7762C29.8344 50.7762 30.9756 49.8643 31.3272 48.632ZM22.3128 43.096C22.3128 43.6665 22.7739 44.1311 23.3445 44.1311H33.6556C34.2262 44.1311 34.6873 43.6665 34.6873 43.096C34.6873 42.5254 34.2263 42.0609 33.6556 42.0609H23.3445C22.7739 42.0609 22.3128 42.5254 22.3128 43.096ZM22.6413 32.7157C22.6413 32.0616 22.1053 31.5301 21.454 31.5301C20.7969 31.5301 20.2667 32.0616 20.2667 32.7157C20.2667 33.3693 20.7969 33.9013 21.454 33.9013C22.1053 33.9012 22.6413 33.3693 22.6413 32.7157ZM18.8315 25.1606C18.8315 24.7174 18.4684 24.3571 18.0246 24.3571C17.5865 24.3571 17.2235 24.7174 17.2235 25.1606C17.2235 25.6033 17.5865 25.9641 18.0246 25.9641C18.4684 25.9641 18.8315 25.6033 18.8315 25.1606ZM22.6413 17.6056C22.6413 16.9514 22.1053 16.42 21.454 16.42C20.7969 16.42 20.2667 16.9513 20.2667 17.6056C20.2667 18.2591 20.7969 18.7912 21.454 18.7912C22.1053 18.7912 22.6413 18.2593 22.6413 17.6056ZM41.7594 25.1952C41.7594 28.5889 40.3877 31.0201 38.7969 33.835C37.6211 35.9082 36.2955 38.2558 35.3963 41.3462C35.8459 41.794 36.1283 42.413 36.1283 43.0961C36.1283 43.9946 35.6441 44.7825 34.9237 45.2159C35.1385 45.5669 35.2522 45.9704 35.2522 46.3819C35.2522 47.6228 34.2435 48.632 32.9987 48.632H32.8027C32.4223 50.6609 30.624 52.2136 28.4973 52.2136C26.3762 52.2136 24.5779 50.6609 24.1975 48.632H24.0016C22.7566 48.632 21.748 47.6228 21.748 46.3819C21.748 45.9554 21.8691 45.556 22.0765 45.2159C21.3561 44.7825 20.8719 43.9946 20.8719 43.0961C20.8719 41.733 21.9843 40.6234 23.3446 40.6234H27.7826V33.4338H23.9728C23.6616 34.5317 22.6471 35.3382 21.4541 35.3382C20.0074 35.3382 18.8317 34.1618 18.8317 32.7157C18.8317 31.2696 20.0074 30.0927 21.4541 30.0927C22.6472 30.0927 23.6616 30.899 23.9728 31.9969H27.7826V25.8788H20.1515C19.846 26.763 19.0103 27.4009 18.0248 27.4009C16.7913 27.4009 15.7884 26.3958 15.7884 25.1606C15.7884 23.9248 16.7913 22.9197 18.0248 22.9197C19.0103 22.9197 19.846 23.5577 20.1515 24.4418H27.7826V18.3237H23.9728C23.6616 19.4216 22.6471 20.2279 21.4541 20.2279C20.0074 20.2279 18.8317 19.0516 18.8317 17.6055C18.8317 16.1594 20.0074 14.9824 21.4541 14.9824C22.6472 14.9824 23.6616 15.7888 23.9728 16.8868H27.7826V12.6534C27.7826 12.2562 28.1053 11.9346 28.4973 11.9346C35.8113 11.9348 41.7594 17.8834 41.7594 25.1952ZM45.8804 34.3657L43.8516 33.1934C43.6859 33.0979 43.4892 33.072 43.3045 33.1212C43.1198 33.1705 42.9621 33.2909 42.8659 33.4561C42.67 33.7996 42.7852 34.2394 43.1311 34.4377L45.16 35.6101C45.2704 35.6737 45.3956 35.7069 45.523 35.7063C45.6492 35.7065 45.7732 35.6734 45.8825 35.6103C45.9918 35.5473 46.0825 35.4565 46.1455 35.3472C46.3416 35.0038 46.2263 34.5641 45.8804 34.3657ZM48.1571 24.4419H45.8114C45.4136 24.4419 45.0909 24.7635 45.0909 25.1607C45.0909 25.5573 45.4136 25.8789 45.8114 25.8789H48.1571C48.5548 25.8789 48.8718 25.5573 48.8718 25.1607C48.8718 24.7635 48.5548 24.4419 48.1571 24.4419ZM43.4886 17.224C43.616 17.2243 43.7412 17.1912 43.8517 17.1278L45.8806 15.9555C46.2263 15.7567 46.3417 15.3175 46.1457 14.974C45.9439 14.63 45.5059 14.5117 45.1602 14.7106L43.1313 15.8829C42.7856 16.0812 42.6703 16.521 42.8662 16.8645C43.0043 17.095 43.2407 17.224 43.4886 17.224ZM36.7969 10.7918C36.9053 10.8551 37.0287 10.8883 37.1542 10.888C37.2804 10.8881 37.4044 10.8549 37.5137 10.7917C37.623 10.7286 37.7137 10.6377 37.7766 10.5283L38.9524 8.49778C39.1484 8.1543 39.0273 7.71448 38.6873 7.51624C38.3414 7.31742 37.9034 7.43552 37.7074 7.77958L36.5316 9.81015C36.3358 10.1537 36.451 10.593 36.7969 10.7918ZM13.1486 33.1935L11.1198 34.3659C10.774 34.5641 10.6588 35.0039 10.8546 35.3474C10.9176 35.4567 11.0083 35.5475 11.1176 35.6105C11.2269 35.6736 11.3509 35.7067 11.4771 35.7065C11.5981 35.7065 11.7249 35.6759 11.8344 35.6103L13.869 34.4379C14.2091 34.2397 14.3301 33.7999 14.1284 33.4564C13.9325 33.1122 13.4944 32.9947 13.1486 33.1935ZM11.9093 25.1606C11.9093 24.7635 11.5866 24.4418 11.1889 24.4418H8.84308C8.44534 24.4418 8.12842 24.7634 8.12842 25.1606C8.12842 25.5572 8.44545 25.8788 8.84308 25.8788H11.1889C11.5866 25.8788 11.9093 25.5572 11.9093 25.1606ZM13.869 15.8828L11.8344 14.7104C11.4944 14.5116 11.0563 14.6297 10.8546 14.9739C10.6586 15.3174 10.7739 15.7566 11.1198 15.9554L13.1486 17.1277C13.2574 17.1903 13.3806 17.2235 13.506 17.2239C13.6322 17.224 13.7563 17.1908 13.8655 17.1277C13.9748 17.0645 14.0655 16.9736 14.1285 16.8642C14.3301 16.5209 14.2091 16.0812 13.869 15.8828ZM19.2235 10.5285C19.2864 10.6378 19.3771 10.7287 19.4864 10.7918C19.5957 10.855 19.7197 10.8882 19.8459 10.8881C19.9714 10.8877 20.0946 10.8545 20.2033 10.7919C20.5492 10.5931 20.6644 10.1539 20.4685 9.81037L19.2927 7.7798C19.0967 7.43575 18.6587 7.31811 18.3128 7.51647C17.967 7.71471 17.8517 8.15452 18.0477 8.49801L19.2235 10.5285ZM27.7826 7.85003V5.50539C27.7826 5.10879 28.1053 4.78662 28.4973 4.78662C28.8949 4.78662 29.2177 5.10879 29.2177 5.50539V7.85003C29.2177 8.24709 28.895 8.5688 28.4973 8.5688C28.1053 8.5688 27.7826 8.24721 27.7826 7.85003Z" fill="#FFD646"/>
</svg>
