<svg width="1440" height="994" viewBox="0 0 1440 994" fill="none" xmlns="http://www.w3.org/2000/svg">
<g clip-path="url(#clip0_640_6485)">
<rect width="1440" height="994" fill="black"/>
<g filter="url(#filter0_f_640_6485)">
<path d="M1120 847.088C1120 929.99 975.637 921.775 748.571 921.775C521.506 921.775 320 929.99 320 847.088C320 764.187 500.683 619 727.748 619C954.813 619 1120 764.187 1120 847.088Z" fill="url(#paint0_linear_640_6485)"/>
</g>
<g filter="url(#filter1_f_640_6485)">
<path d="M862 803.21C862 824.004 810.751 821.944 730.143 821.944C649.535 821.944 578 824.004 578 803.21C578 782.417 642.142 746 722.751 746C803.359 746 862 782.417 862 803.21Z" fill="#FFD646"/>
</g>
<path d="M310.002 78.0747L380.999 156.925" stroke="url(#paint1_linear_640_6485)" stroke-linecap="round"/>
<path d="M133 128L203.719 206.542" stroke="url(#paint2_linear_640_6485)" stroke-width="0.56" stroke-linecap="round"/>
<g filter="url(#filter2_f_640_6485)">
<ellipse cx="716.708" cy="1482.33" rx="932.708" ry="711.325" fill="#FFD646"/>
<path d="M716.708 771.5C974.169 771.5 1207.24 851.088 1375.93 979.74C1544.62 1108.39 1648.92 1286.09 1648.92 1482.33C1648.92 1678.56 1544.62 1856.26 1375.93 1984.91C1207.24 2113.56 974.169 2193.15 716.708 2193.15C459.248 2193.15 226.18 2113.56 57.4873 1984.91C-111.205 1856.26 -215.5 1678.56 -215.5 1482.33C-215.5 1286.09 -111.205 1108.39 57.4873 979.74C226.18 851.088 459.248 771.5 716.708 771.5Z" stroke="url(#paint3_linear_640_6485)"/>
</g>
<g filter="url(#filter3_f_640_6485)">
<ellipse cx="720" cy="1628.34" rx="1110" ry="846.536" fill="black"/>
<path d="M720 782.309C1026.42 782.309 1303.81 877.03 1504.58 1030.15C1705.36 1183.27 1829.5 1394.77 1829.5 1628.35C1829.5 1861.92 1705.36 2073.42 1504.58 2226.54C1303.81 2379.66 1026.42 2474.38 720 2474.38C413.582 2474.38 136.191 2379.66 -64.585 2226.54C-265.36 2073.42 -389.5 1861.92 -389.5 1628.35C-389.5 1394.77 -265.36 1183.27 -64.585 1030.15C136.191 877.03 413.582 782.309 720 782.309Z" stroke="url(#paint4_linear_640_6485)"/>
</g>
<g filter="url(#filter4_f_640_6485)" style="mix-blend-mode:plus-lighter">
<path d="M717.43 771.257C1011.79 771.257 1278.26 862.25 1471.13 1009.34C1664 1156.43 1783.25 1359.6 1783.25 1583.98C1783.25 1808.36 1664 2011.53 1471.13 2158.62C1278.26 2305.71 1011.79 2396.7 717.43 2396.7C423.074 2396.7 156.603 2305.71 -36.2678 2158.62C-229.138 2011.53 -348.389 1808.36 -348.389 1583.98C-348.389 1359.6 -229.139 1156.43 -36.2678 1009.34C156.603 862.25 423.074 771.257 717.43 771.257Z" stroke="url(#paint5_linear_640_6485)"/>
</g>
<g filter="url(#filter5_f_640_6485)" style="mix-blend-mode:plus-lighter">
<path d="M717.43 771.257C1011.79 771.257 1278.26 862.25 1471.13 1009.34C1664 1156.43 1783.25 1359.6 1783.25 1583.98C1783.25 1808.36 1664 2011.53 1471.13 2158.62C1278.26 2305.71 1011.79 2396.7 717.43 2396.7C423.074 2396.7 156.603 2305.71 -36.2678 2158.62C-229.138 2011.53 -348.389 1808.36 -348.389 1583.98C-348.389 1359.6 -229.139 1156.43 -36.2678 1009.34C156.603 862.25 423.074 771.257 717.43 771.257Z" stroke="url(#paint6_linear_640_6485)"/>
</g>
<g filter="url(#filter6_f_640_6485)" style="mix-blend-mode:plus-lighter">
<path d="M717.43 771.257C1011.79 771.257 1278.26 862.25 1471.13 1009.34C1664 1156.43 1783.25 1359.6 1783.25 1583.98C1783.25 1808.36 1664 2011.53 1471.13 2158.62C1278.26 2305.71 1011.79 2396.7 717.43 2396.7C423.074 2396.7 156.603 2305.71 -36.2678 2158.62C-229.138 2011.53 -348.389 1808.36 -348.389 1583.98C-348.389 1359.6 -229.139 1156.43 -36.2678 1009.34C156.603 862.25 423.074 771.257 717.43 771.257Z" stroke="url(#paint7_linear_640_6485)"/>
</g>
<g filter="url(#filter7_f_640_6485)" style="mix-blend-mode:plus-lighter">
<path d="M717.43 771.257C1011.79 771.257 1278.26 862.25 1471.13 1009.34C1664 1156.43 1783.25 1359.6 1783.25 1583.98C1783.25 1808.36 1664 2011.53 1471.13 2158.62C1278.26 2305.71 1011.79 2396.7 717.43 2396.7C423.074 2396.7 156.603 2305.71 -36.2678 2158.62C-229.138 2011.53 -348.389 1808.36 -348.389 1583.98C-348.389 1359.6 -229.139 1156.43 -36.2678 1009.34C156.603 862.25 423.074 771.257 717.43 771.257Z" stroke="url(#paint8_linear_640_6485)"/>
</g>
<g filter="url(#filter8_f_640_6485)" style="mix-blend-mode:plus-lighter">
<path d="M717.43 771.257C1011.79 771.257 1278.26 862.25 1471.13 1009.34C1664 1156.43 1783.25 1359.6 1783.25 1583.98C1783.25 1808.36 1664 2011.53 1471.13 2158.62C1278.26 2305.71 1011.79 2396.7 717.43 2396.7C423.074 2396.7 156.603 2305.71 -36.2678 2158.62C-229.138 2011.53 -348.389 1808.36 -348.389 1583.98C-348.389 1359.6 -229.139 1156.43 -36.2678 1009.34C156.603 862.25 423.074 771.257 717.43 771.257Z" stroke="url(#paint9_linear_640_6485)"/>
</g>
</g>
<defs>
<filter id="filter0_f_640_6485" x="70" y="369" width="1300" height="803" filterUnits="userSpaceOnUse" color-interpolation-filters="sRGB">
<feFlood flood-opacity="0" result="BackgroundImageFix"/>
<feBlend mode="normal" in="SourceGraphic" in2="BackgroundImageFix" result="shape"/>
<feGaussianBlur stdDeviation="125" result="effect1_foregroundBlur_640_6485"/>
</filter>
<filter id="filter1_f_640_6485" x="478" y="646" width="484" height="276" filterUnits="userSpaceOnUse" color-interpolation-filters="sRGB">
<feFlood flood-opacity="0" result="BackgroundImageFix"/>
<feBlend mode="normal" in="SourceGraphic" in2="BackgroundImageFix" result="shape"/>
<feGaussianBlur stdDeviation="50" result="effect1_foregroundBlur_640_6485"/>
</filter>
<filter id="filter2_f_640_6485" x="-228" y="759" width="1889.42" height="1446.65" filterUnits="userSpaceOnUse" color-interpolation-filters="sRGB">
<feFlood flood-opacity="0" result="BackgroundImageFix"/>
<feBlend mode="normal" in="SourceGraphic" in2="BackgroundImageFix" result="shape"/>
<feGaussianBlur stdDeviation="6" result="effect1_foregroundBlur_640_6485"/>
</filter>
<filter id="filter3_f_640_6485" x="-402" y="769.809" width="2244" height="1717.07" filterUnits="userSpaceOnUse" color-interpolation-filters="sRGB">
<feFlood flood-opacity="0" result="BackgroundImageFix"/>
<feBlend mode="normal" in="SourceGraphic" in2="BackgroundImageFix" result="shape"/>
<feGaussianBlur stdDeviation="6" result="effect1_foregroundBlur_640_6485"/>
</filter>
<filter id="filter4_f_640_6485" x="-360.889" y="758.757" width="2156.64" height="1650.45" filterUnits="userSpaceOnUse" color-interpolation-filters="sRGB">
<feFlood flood-opacity="0" result="BackgroundImageFix"/>
<feBlend mode="normal" in="SourceGraphic" in2="BackgroundImageFix" result="shape"/>
<feGaussianBlur stdDeviation="6" result="effect1_foregroundBlur_640_6485"/>
</filter>
<filter id="filter5_f_640_6485" x="-360.889" y="758.757" width="2156.64" height="1650.45" filterUnits="userSpaceOnUse" color-interpolation-filters="sRGB">
<feFlood flood-opacity="0" result="BackgroundImageFix"/>
<feBlend mode="normal" in="SourceGraphic" in2="BackgroundImageFix" result="shape"/>
<feGaussianBlur stdDeviation="6" result="effect1_foregroundBlur_640_6485"/>
</filter>
<filter id="filter6_f_640_6485" x="-356.889" y="762.757" width="2148.64" height="1642.45" filterUnits="userSpaceOnUse" color-interpolation-filters="sRGB">
<feFlood flood-opacity="0" result="BackgroundImageFix"/>
<feBlend mode="normal" in="SourceGraphic" in2="BackgroundImageFix" result="shape"/>
<feGaussianBlur stdDeviation="4" result="effect1_foregroundBlur_640_6485"/>
</filter>
<filter id="filter7_f_640_6485" x="-352.889" y="766.757" width="2140.64" height="1634.45" filterUnits="userSpaceOnUse" color-interpolation-filters="sRGB">
<feFlood flood-opacity="0" result="BackgroundImageFix"/>
<feBlend mode="normal" in="SourceGraphic" in2="BackgroundImageFix" result="shape"/>
<feGaussianBlur stdDeviation="2" result="effect1_foregroundBlur_640_6485"/>
</filter>
<filter id="filter8_f_640_6485" x="-352.889" y="766.757" width="2140.64" height="1634.45" filterUnits="userSpaceOnUse" color-interpolation-filters="sRGB">
<feFlood flood-opacity="0" result="BackgroundImageFix"/>
<feBlend mode="normal" in="SourceGraphic" in2="BackgroundImageFix" result="shape"/>
<feGaussianBlur stdDeviation="2" result="effect1_foregroundBlur_640_6485"/>
</filter>
<linearGradient id="paint0_linear_640_6485" x1="720" y1="540.5" x2="720" y2="922" gradientUnits="userSpaceOnUse">
<stop stop-color="#FFE489" stop-opacity="0.72"/>
<stop offset="1" stop-color="#FFD646" stop-opacity="0.64"/>
</linearGradient>
<linearGradient id="paint1_linear_640_6485" x1="314.15" y1="81.8164" x2="380.125" y2="157.697" gradientUnits="userSpaceOnUse">
<stop stop-color="white" stop-opacity="0"/>
<stop offset="1" stop-color="white"/>
</linearGradient>
<linearGradient id="paint2_linear_640_6485" x1="137.133" y1="131.725" x2="202.856" y2="207.304" gradientUnits="userSpaceOnUse">
<stop stop-color="white" stop-opacity="0"/>
<stop offset="1" stop-color="white"/>
</linearGradient>
<linearGradient id="paint3_linear_640_6485" x1="716.708" y1="771" x2="716.708" y2="950.974" gradientUnits="userSpaceOnUse">
<stop stop-color="#FFD646"/>
<stop offset="1" stop-opacity="0"/>
</linearGradient>
<linearGradient id="paint4_linear_640_6485" x1="720" y1="781.809" x2="720" y2="995.993" gradientUnits="userSpaceOnUse">
<stop stop-color="#FFD646"/>
<stop offset="1" stop-opacity="0"/>
</linearGradient>
<linearGradient id="paint5_linear_640_6485" x1="717.43" y1="770.757" x2="717" y2="989.309" gradientUnits="userSpaceOnUse">
<stop stop-color="#FFD646"/>
<stop offset="1" stop-opacity="0"/>
</linearGradient>
<linearGradient id="paint6_linear_640_6485" x1="717.43" y1="770.757" x2="717" y2="867.809" gradientUnits="userSpaceOnUse">
<stop stop-color="#FFD646"/>
<stop offset="1" stop-opacity="0"/>
</linearGradient>
<linearGradient id="paint7_linear_640_6485" x1="717.43" y1="770.757" x2="717" y2="851.309" gradientUnits="userSpaceOnUse">
<stop stop-color="#FFD646"/>
<stop offset="1" stop-opacity="0"/>
</linearGradient>
<linearGradient id="paint8_linear_640_6485" x1="717.43" y1="770.757" x2="717" y2="832.309" gradientUnits="userSpaceOnUse">
<stop stop-color="#FFD646"/>
<stop offset="1" stop-opacity="0"/>
</linearGradient>
<linearGradient id="paint9_linear_640_6485" x1="717.43" y1="770.757" x2="717" y2="820.309" gradientUnits="userSpaceOnUse">
<stop stop-color="#FFD646"/>
<stop offset="1" stop-opacity="0"/>
</linearGradient>
<clipPath id="clip0_640_6485">
<rect width="1440" height="994" fill="white"/>
</clipPath>
</defs>
</svg>
