<svg width="163" height="39" viewBox="0 0 163 39" fill="none" xmlns="http://www.w3.org/2000/svg">
<g clip-path="url(#clip0_304_2330)">
<path d="M49.5958 7.90165C49.446 7.68892 48.981 7.21788 49.5958 6.81521C50.2106 6.41253 50.7782 6.29097 50.9279 6.5037L54.0178 10.8571C54.1834 11.085 53.8286 11.5713 53.2296 11.9588C52.6305 12.3462 52.0393 12.483 51.8817 12.2551L49.5879 7.90165H49.5958Z" fill="white"/>
<path d="M49.21 16.3574C49.21 12.0648 52.8674 8.67627 57.6678 8.67627C62.4681 8.67627 66.1019 12.0724 66.1019 16.3574C66.1019 20.6424 62.4839 24.0309 57.6678 24.0309C52.8516 24.0309 49.21 20.6728 49.21 16.3574ZM63.5086 16.3574C63.5305 15.2375 63.2058 14.1367 62.5759 13.1954C61.946 12.2541 61.0395 11.515 59.972 11.0724C58.9044 10.6298 57.7243 10.5038 56.5822 10.7104C55.44 10.917 54.3876 11.4468 53.5592 12.2324C52.7308 13.0179 52.1639 14.0235 51.9309 15.1208C51.698 16.2182 51.8094 17.3576 52.2511 18.3936C52.6928 19.4297 53.4446 20.3154 54.4108 20.9379C55.3769 21.5603 56.5135 21.8912 57.6756 21.8884C58.4374 21.9015 59.1943 21.7681 59.9019 21.496C60.6096 21.2238 61.2538 20.8183 61.7969 20.3033C62.3401 19.7883 62.7712 19.1741 63.0651 18.4965C63.359 17.819 63.5098 17.0918 63.5086 16.3574Z" fill="white"/>
<path d="M2.56177 21.4478V22.5266C2.53646 22.8374 2.39054 23.1274 2.15312 23.339C1.9157 23.5506 1.60424 23.6681 1.28089 23.6681C0.957536 23.6681 0.646076 23.5506 0.408654 23.339C0.171232 23.1274 0.0253073 22.8374 0 22.5266V4.12536C0.0253073 3.81465 0.171232 3.52457 0.408654 3.31299C0.646076 3.10141 0.957536 2.98389 1.28089 2.98389C1.60424 2.98389 1.9157 3.10141 2.15312 3.31299C2.39054 3.52457 2.53646 3.81465 2.56177 4.12536V10.7352C4.16674 9.24089 6.32116 8.42119 8.55237 8.45598C9.62766 8.40985 10.7015 8.57415 11.7091 8.93898C12.7167 9.3038 13.6372 9.86159 14.415 10.5787C15.1928 11.2958 15.8119 12.1573 16.2348 13.1113C16.6578 14.0653 16.8758 15.092 16.8758 16.1295C16.8758 17.167 16.6578 18.1937 16.2348 19.1477C15.8119 20.1017 15.1928 20.9632 14.415 21.6803C13.6372 22.3974 12.7167 22.9552 11.7091 23.32C10.7015 23.6849 9.62766 23.8492 8.55237 23.803C7.44098 23.8179 6.33785 23.617 5.30868 23.2124C4.2795 22.8078 3.34532 22.2076 2.56177 21.4478ZM14.2592 16.1295C14.2594 15.3928 14.1069 14.6635 13.8107 13.9844C13.5144 13.3053 13.0804 12.6901 12.5341 12.1749C11.9879 11.6596 11.3403 11.2548 10.6295 10.9841C9.91862 10.7134 9.15885 10.5823 8.39473 10.5985C7.6491 10.5772 6.90646 10.6981 6.20939 10.9541C5.51232 11.2101 4.87454 11.5962 4.33263 12.0903C3.79072 12.5844 3.35533 13.1768 3.05145 13.8334C2.74756 14.49 2.58116 15.198 2.56177 15.9168V16.3574C2.60918 17.8064 3.24894 19.1786 4.34157 20.1748C5.43421 21.171 6.89113 21.7105 8.39473 21.6757C9.16535 21.6919 9.93155 21.5594 10.6482 21.2858C11.3649 21.0123 12.0175 20.6033 12.5677 20.0829C13.1178 19.5625 13.5544 18.9413 13.8517 18.2558C14.1489 17.5704 14.3009 16.8345 14.2986 16.0915L14.2592 16.1295Z" fill="white"/>
<path d="M18.2402 16.3574C18.2402 12.0648 21.8977 8.67627 26.698 8.67627C31.4984 8.67627 35.1322 12.0724 35.1322 16.3574C35.1322 20.6424 31.5063 24.0309 26.698 24.0309C21.8898 24.0309 18.2402 20.6728 18.2402 16.3574ZM32.531 16.3574C32.5529 15.2375 32.2282 14.1367 31.5983 13.1954C30.9684 12.2541 30.0619 11.515 28.9944 11.0724C27.9268 10.6298 26.7467 10.5038 25.6046 10.7104C24.4624 10.917 23.41 11.4468 22.5816 12.2324C21.7532 13.0179 21.1863 14.0235 20.9533 15.1208C20.7203 16.2182 20.8318 17.3576 21.2735 18.3936C21.7151 19.4297 22.467 20.3154 23.4332 20.9379C24.3993 21.5603 25.5359 21.8912 26.698 21.8884C27.4578 21.8985 28.2121 21.7628 28.917 21.4893C29.6219 21.2157 30.2633 20.8098 30.8039 20.2951C31.3446 19.7804 31.7736 19.1672 32.066 18.4912C32.3584 17.8151 32.5084 17.0898 32.5073 16.3574H32.531Z" fill="white"/>
<path d="M44.0938 9.92221C44.0938 9.59578 44.2283 9.28272 44.4678 9.0519C44.7072 8.82108 45.032 8.69141 45.3707 8.69141C45.7094 8.69141 46.0341 8.82108 46.2736 9.0519C46.5131 9.28272 46.6476 9.59578 46.6476 9.92221V22.838C46.6476 23.1645 46.5131 23.4775 46.2736 23.7084C46.0341 23.9392 45.7094 24.0688 45.3707 24.0688C45.032 24.0688 44.7072 23.9392 44.4678 23.7084C44.2283 23.4775 44.0938 23.1645 44.0938 22.838V9.92221Z" fill="white"/>
<path d="M68.6865 13.3641C68.6865 9.74009 71.3192 7.74194 74.5904 7.74194C76.6714 7.74194 78.3109 8.43332 79.241 9.85406C79.7575 9.15076 80.4529 8.58717 81.2603 8.21732C82.0678 7.84747 82.9603 7.68378 83.8522 7.74194C87.1549 7.74194 89.7876 9.74009 89.7876 13.3641V21.8506C89.7623 22.1613 89.6164 22.4514 89.379 22.663C89.1416 22.8746 88.8301 22.9921 88.5068 22.9921C88.1834 22.9921 87.8719 22.8746 87.6345 22.663C87.3971 22.4514 87.2512 22.1613 87.2259 21.8506V13.3185C87.2259 11.0393 85.7519 9.86926 83.8601 9.86926C81.9683 9.86926 80.5101 11.0393 80.5101 13.3185V21.8354C80.4848 22.1461 80.3389 22.4362 80.1014 22.6478C79.864 22.8594 79.5525 22.9769 79.2292 22.9769C78.9058 22.9769 78.5944 22.8594 78.357 22.6478C78.1195 22.4362 77.9736 22.1461 77.9483 21.8354V13.3185C77.9483 11.0393 76.4743 9.86926 74.5825 9.86926C72.6908 9.86926 71.2483 11.0317 71.2483 13.3185V21.8354C71.223 22.1461 71.0771 22.4362 70.8396 22.6478C70.6022 22.8594 70.2908 22.9769 69.9674 22.9769C69.6441 22.9769 69.3326 22.8594 69.0952 22.6478C68.8577 22.4362 68.7118 22.1461 68.6865 21.8354V13.3641Z" fill="white"/>
<path d="M106.411 20.7795C105.621 21.5283 104.685 22.1187 103.657 22.5165C102.629 22.9142 101.529 23.1114 100.421 23.0967C99.3538 23.1291 98.2908 22.9545 97.2951 22.5832C96.2994 22.2119 95.3913 21.6516 94.6246 20.9355C93.8579 20.2194 93.2483 19.3621 92.832 18.4145C92.4157 17.467 92.2012 16.4484 92.2012 15.4194C92.2012 14.3904 92.4157 13.3718 92.832 12.4243C93.2483 11.4767 93.8579 10.6194 94.6246 9.9033C95.3913 9.18719 96.2994 8.62687 97.2951 8.25561C98.2908 7.88435 99.3538 7.70972 100.421 7.74208C102.658 7.72445 104.811 8.56017 106.411 10.0669V8.96529C106.437 8.65458 106.583 8.36448 106.82 8.1529C107.058 7.94132 107.369 7.82381 107.692 7.82381C108.016 7.82381 108.327 7.94132 108.565 8.1529C108.802 8.36448 108.948 8.65458 108.973 8.96529V21.8811C108.948 22.1918 108.802 22.4819 108.565 22.6935C108.327 22.9051 108.016 23.0226 107.692 23.0226C107.369 23.0226 107.058 22.9051 106.82 22.6935C106.583 22.4819 106.437 22.1918 106.411 21.8811V20.7795ZM106.411 15.6511V15.1877C106.354 13.742 105.711 12.3757 104.621 11.3815C103.53 10.3873 102.079 9.84449 100.579 9.8694C99.816 9.86138 99.0593 9.99833 98.3517 10.2724C97.6442 10.5465 96.9996 10.9524 96.4549 11.4668C95.9103 11.9812 95.4761 12.5941 95.1774 13.2704C94.8787 13.9466 94.7212 14.673 94.714 15.408C94.7555 16.8579 95.3744 18.2368 96.4424 19.2586C97.5104 20.2805 98.9455 20.8669 100.45 20.8962C101.955 20.9255 103.413 20.3955 104.523 19.4161C105.633 18.4367 106.309 17.083 106.411 15.6359V15.6511Z" fill="white"/>
<path d="M111.149 9.10186C111.16 8.80897 111.29 8.53192 111.511 8.3312C111.733 8.13048 112.028 8.02241 112.332 8.0306H114.034V5.42465C114.034 5.09822 114.169 4.78516 114.408 4.55434C114.648 4.32352 114.973 4.19385 115.311 4.19385C115.65 4.19385 115.975 4.32352 116.214 4.55434C116.454 4.78516 116.588 5.09822 116.588 5.42465V8.00022H120.821C120.976 7.9877 121.131 8.0062 121.277 8.05454C121.424 8.10289 121.559 8.18002 121.673 8.28107C121.787 8.38212 121.878 8.50488 121.94 8.64159C122.002 8.77829 122.034 8.92597 122.034 9.07527C122.034 9.22457 122.002 9.37225 121.94 9.50896C121.878 9.64567 121.787 9.76843 121.673 9.86948C121.559 9.97053 121.424 10.0477 121.277 10.096C121.131 10.1443 120.976 10.1628 120.821 10.1503H116.588V16.6918C116.588 19.389 118.291 20.8325 120.821 20.8325C120.978 20.8199 121.135 20.8387 121.284 20.8878C121.432 20.9369 121.569 21.0151 121.684 21.1176C121.8 21.22 121.892 21.3445 121.955 21.4831C122.018 21.6217 122.051 21.7714 122.051 21.9227C122.051 22.0741 122.018 22.2238 121.955 22.3624C121.892 22.501 121.8 22.6254 121.684 22.7279C121.569 22.8304 121.432 22.9086 121.284 22.9577C121.135 23.0068 120.978 23.0256 120.821 23.013C116.88 23.013 114.027 20.5742 114.027 16.6918V10.1503H112.332C112.027 10.1546 111.732 10.0444 111.51 9.84308C111.288 9.64175 111.156 9.36504 111.142 9.07148L111.149 9.10186Z" fill="white"/>
<path d="M122.224 15.4231C122.224 11.1305 125.881 7.74202 130.681 7.74202C131.846 7.71538 133.003 7.92326 134.08 8.35236C135.156 8.78146 136.127 9.42234 136.932 10.234C137.154 10.4539 137.291 10.7411 137.318 11.0469C137.313 11.2006 137.274 11.3514 137.206 11.4901C137.137 11.6287 137.039 11.7522 136.918 11.8527C136.798 11.9533 136.657 12.0288 136.505 12.0745C136.352 12.1201 136.192 12.135 136.034 12.1182C135.62 12.0887 135.233 11.9128 134.946 11.6244C134.156 10.817 133.134 10.2568 132.01 10.0163C130.886 9.77574 129.714 9.86598 128.644 10.2753C127.574 10.6847 126.657 11.3942 126.01 12.3121C125.364 13.2299 125.018 14.3137 125.018 15.4231C125.018 16.5325 125.364 17.6164 126.01 18.5342C126.657 19.4521 127.574 20.1616 128.644 20.571C129.714 20.9803 130.886 21.0705 132.01 20.83C133.134 20.5895 134.156 20.0293 134.946 19.2219C135.226 18.9199 135.615 18.7323 136.034 18.6977C136.194 18.6842 136.356 18.7024 136.508 18.7512C136.661 18.8 136.802 18.8784 136.922 18.9815C137.043 19.0847 137.14 19.2104 137.208 19.351C137.276 19.4917 137.314 19.6442 137.318 19.7993C137.28 20.0867 137.144 20.3538 136.932 20.5591C136.131 21.3778 135.161 22.0253 134.085 22.4598C133.008 22.8943 131.848 23.1061 130.681 23.0815C125.873 23.0967 122.224 19.7082 122.224 15.4231Z" fill="white"/>
<path d="M138.84 3.44177C138.865 3.13106 139.011 2.84097 139.248 2.62939C139.486 2.41781 139.797 2.30029 140.121 2.30029C140.444 2.30029 140.756 2.41781 140.993 2.62939C141.23 2.84097 141.376 3.13106 141.402 3.44177V9.51981C142.036 8.93167 142.784 8.46989 143.604 8.16091C144.424 7.85193 145.298 7.70183 146.178 7.7192C149.93 7.7192 152.91 10.2112 152.91 14.4126V21.8279C152.885 22.1386 152.739 22.4287 152.501 22.6402C152.264 22.8518 151.952 22.9693 151.629 22.9693C151.306 22.9693 150.994 22.8518 150.757 22.6402C150.519 22.4287 150.373 22.1386 150.348 21.8279V14.3822C150.348 11.3964 148.362 9.8921 145.855 9.8921C143.349 9.8921 141.402 11.366 141.402 14.3822V21.8506C141.376 22.1614 141.23 22.4514 140.993 22.663C140.756 22.8746 140.444 22.9921 140.121 22.9921C139.797 22.9921 139.486 22.8746 139.248 22.663C139.011 22.4514 138.865 22.1614 138.84 21.8506V3.44177Z" fill="white"/>
<path d="M49.21 30.9299C49.21 26.6449 52.8674 23.2563 57.6678 23.2563C62.4681 23.2563 66.1019 26.6449 66.1019 30.9299C66.1019 35.2149 62.4839 38.611 57.6678 38.611C52.8516 38.611 49.21 35.2149 49.21 30.9299ZM63.5086 30.9299C63.5289 29.8103 63.2029 28.7102 62.572 27.7699C61.9412 26.8296 61.0341 26.0917 59.9664 25.6502C58.8987 25.2088 57.7188 25.0839 56.5771 25.2914C55.4355 25.4988 54.3838 26.0293 53.5562 26.8152C52.7286 27.601 52.1625 28.6066 51.9302 29.7038C51.6979 30.801 51.8098 31.94 52.2517 32.9756C52.6937 34.0112 53.4456 34.8965 54.4116 35.5185C55.3776 36.1406 56.5139 36.4713 57.6756 36.4685C58.4384 36.4827 59.1963 36.3497 59.905 36.0775C60.6136 35.8052 61.2587 35.3991 61.8021 34.8831C62.3456 34.367 62.7765 33.7515 63.0696 33.0726C63.3626 32.3937 63.5119 31.6652 63.5086 30.9299Z" fill="white"/>
<path d="M37.4336 4.42175C37.4589 4.11104 37.6048 3.82096 37.8422 3.60937C38.0797 3.39779 38.3911 3.28027 38.7145 3.28027C39.0378 3.28027 39.3493 3.39779 39.5867 3.60937C39.8241 3.82096 39.9701 4.11104 39.9954 4.42175V22.8154C39.9701 23.1261 39.8241 23.4162 39.5867 23.6278C39.3493 23.8394 39.0378 23.9569 38.7145 23.9569C38.3911 23.9569 38.0797 23.8394 37.8422 23.6278C37.6048 23.4162 37.4589 23.1261 37.4336 22.8154V4.42175Z" fill="white"/>
<path d="M156.969 9.94497C156.823 9.9431 156.679 9.90657 156.551 9.8386C156.409 9.77022 156.346 9.58029 156.346 9.28398V5.67514H152.634C152.457 5.6846 152.282 5.63643 152.137 5.53838C152.068 5.48067 152.014 5.40782 151.979 5.32588C151.945 5.24395 151.932 5.15531 151.94 5.06734C151.928 4.98513 151.936 4.90134 151.964 4.82267C151.991 4.744 152.037 4.67264 152.099 4.6143C152.16 4.55596 152.235 4.51226 152.317 4.4867C152.398 4.46115 152.486 4.45445 152.571 4.46714H156.378V0.858297C156.378 0.554395 156.441 0.372049 156.583 0.296073C156.711 0.226179 156.857 0.189453 157.004 0.189453C157.152 0.189453 157.297 0.226179 157.426 0.296073C157.56 0.372049 157.631 0.554395 157.631 0.858297V4.46714H161.375C161.551 4.4603 161.724 4.50537 161.872 4.59629C161.939 4.65514 161.992 4.72839 162.024 4.81018C162.057 4.89197 162.07 4.98004 162.061 5.06734C162.07 5.15468 162.058 5.24294 162.025 5.32483C161.992 5.40672 161.94 5.47991 161.872 5.53838C161.727 5.63643 161.552 5.6846 161.375 5.67514H157.631V9.28398C157.631 9.58029 157.56 9.77022 157.426 9.8386C157.286 9.91255 157.128 9.94926 156.969 9.94497Z" fill="white" stroke="white" stroke-width="0.5" stroke-miterlimit="10"/>
</g>
<defs>
<clipPath id="clip0_304_2330">
<rect width="162.259" height="38.6032" fill="white"/>
</clipPath>
</defs>
</svg>
