<svg width="96" height="77" viewBox="0 0 96 77" fill="none" xmlns="http://www.w3.org/2000/svg">
<path d="M42.2472 12.6037C44.3855 12.4386 47.1818 13.3031 49.3202 13.6507C52.5259 14.172 53.7739 18.2101 55.3526 20.8153C56.7398 20.2616 58.0046 19.3814 59.2193 18.527C59.756 18.1498 61.1284 16.9982 61.753 17.2456C62.1055 18.4476 57.8455 22.2362 56.927 22.9668C54.3797 24.9952 52.8992 22.1976 51.602 20.3551C50.1718 22.0162 48.3442 24.1733 47.1263 25.9732C48.524 26.9449 50.0976 27.8912 51.3803 28.9928C55.6067 32.6208 52.6429 34.0441 49.2397 35.5502C46.9067 36.4724 44.5184 37.4618 42.1832 38.3873C41.8693 38.5115 41.6006 38.5656 41.3306 38.3485C41.3286 38.2675 41.3224 38.2386 41.338 38.1641C41.5389 37.1969 47.9059 32.73 49.0681 32.0435C46.9821 30.9442 42.5055 29.6207 41.4834 27.5021C40.2249 24.8911 43.1301 22.5362 44.2527 20.4365C45.0278 18.9858 45.4421 17.7409 45.9975 16.2073C45.0121 15.8173 43.7117 15.4565 42.6823 15.2147C41.5022 15.8828 37.0988 19.4655 36.1678 19.2701L36.083 19.0921C36.4523 17.5185 40.6506 13.2263 42.2472 12.6037Z" fill="#567388"/>
<path d="M63.0734 22.3782C67.8148 22.0488 69.4979 27.2334 68.0573 31.1229C65.8238 37.1585 60.7017 36.2834 56.4238 39.754C54.9436 40.9545 52.8522 44.6493 51.6773 46.4243C51.171 47.0919 50.9397 48.2928 50.3057 48.5511C49.6834 48.5791 48.4269 47.7644 48.3506 47.1832C48.4917 46.8351 48.6696 46.6216 48.9049 46.3332C50.3478 44.5686 51.4513 42.5565 52.9296 40.8177C53.3732 40.2951 53.7058 39.8664 53.9684 39.2275C54.6172 37.6265 54.9791 35.923 55.0377 34.1958C55.1874 30.5943 54.5711 28.3892 57.3153 25.2202C58.8982 23.3912 60.6516 22.5202 63.0734 22.3782Z" fill="#567388"/>
<path d="M62.4265 23.5521C63.207 23.5194 63.5103 23.5476 64.2803 23.6436L64.7774 23.8356C65.2858 24.1078 65.5892 24.2601 66.0505 24.6176L66.4596 25.0392C66.7641 25.5218 67.1491 26.136 67.1929 26.7184C67.3634 27.3281 67.4701 27.952 67.4555 28.5887C67.4043 29.1361 67.2777 29.8097 67.0913 30.3329L66.901 30.8884C66.6992 31.3327 66.5202 31.7682 66.2377 32.1669L65.8527 32.7549C65.4856 33.2303 65.2961 33.4674 64.8673 33.8874L64.4257 34.2388C63.8995 34.6438 63.6946 34.8118 63.0857 35.1035C62.5218 35.393 61.7099 35.6749 61.076 35.7247C60.5046 35.8162 59.8803 35.7633 59.3206 35.6276L58.7555 35.4529C58.2564 35.2009 58.0148 35.01 57.5723 34.6765L57.1591 34.274C56.8211 33.7618 56.6296 33.2929 56.3829 32.737C56.1464 32.2061 56.1527 31.2829 56.1829 30.7054C56.2697 29.9889 56.3075 29.6743 56.5167 28.9706L56.6464 28.5035C56.9298 27.9072 57.0744 27.6028 57.4582 27.0478L57.6947 26.6406C57.9647 26.2322 58.3642 25.8413 58.7063 25.4832L59.0872 25.1199C59.6154 24.6754 60.0747 24.3933 60.6984 24.1078C61.3364 23.7374 61.7236 23.6748 62.4265 23.5521Z" fill="#E5914D"/>
<path d="M64.7775 23.8359C65.286 24.1082 65.5893 24.2607 66.0506 24.6181L66.4598 25.0397C66.1218 25.5889 65.807 26.1043 65.4941 26.6696C65.2149 26.2696 65.3623 26.3754 64.95 26.2207C64.5107 26.1597 64.0702 25.7692 63.748 25.4923C64.0755 24.9041 64.4102 24.3972 64.7775 23.8359Z" fill="#F9F8F8"/>
<path d="M66.0508 24.6182L66.4597 25.0398C66.1219 25.589 65.807 26.1045 65.4942 26.6697C65.2148 26.2696 65.3625 26.3754 64.9502 26.2207C65.3079 25.68 65.6752 25.1458 66.0508 24.6182Z" fill="#D39C6F"/>
<path d="M58.2691 33.6003C58.5935 33.2243 58.4751 33.2503 58.8926 33.1377C59.174 33.342 59.5194 33.6075 59.8071 33.7887L59.8677 34.1711C60.0435 34.2915 60.035 34.2982 60.2578 34.3157C59.9514 34.7826 59.6878 35.2022 59.3205 35.6276L58.7557 35.4529C58.2566 35.2008 58.015 35.01 57.5723 34.6765C57.7501 34.3511 58.0568 33.9195 58.2691 33.6003Z" fill="#F9F8F8"/>
<path d="M59.8073 33.7891L59.8679 34.1714C60.0435 34.2918 60.0352 34.2986 60.258 34.3161C59.9516 34.783 59.6878 35.2023 59.3207 35.628L58.7559 35.4533C59.1241 34.9052 59.4619 34.3506 59.8073 33.7891Z" fill="#D39C6F"/>
<path d="M58.7071 25.4834L59.0879 25.1201C59.5221 25.3441 59.8191 25.5074 60.2281 25.7723C59.9102 25.9342 59.8966 25.923 59.8203 26.3201C59.7198 26.7505 59.3357 27.125 59.044 27.4701L57.6953 26.6408C57.9653 26.2324 58.3649 25.8416 58.7071 25.4834Z" fill="#F9F8F8"/>
<path d="M58.707 25.4834L59.0878 25.1201C59.522 25.3441 59.8191 25.5074 60.2282 25.7723C59.9101 25.9342 59.8965 25.923 59.8202 26.3201L58.707 25.4834Z" fill="#D39C6F"/>
<path d="M64.331 31.9869C64.7496 31.916 64.9735 32.1095 65.3719 32.3959C65.5341 32.5134 65.6943 32.6332 65.8533 32.7549C65.486 33.2304 65.2967 33.4674 64.8677 33.8876C64.5214 33.6093 64.0811 33.3055 63.7158 33.0388C63.8905 32.6834 64.1218 32.3262 64.331 31.9869Z" fill="#F9F8F8"/>
<path d="M57.4583 27.0479L58.6614 28.0853C58.4428 28.4403 58.1916 28.8751 57.9605 29.2128L56.6465 28.5035C56.9299 27.9072 57.0744 27.6029 57.4583 27.0479Z" fill="#F9F8F8"/>
<path d="M65.5676 30.1255L66.9016 30.8886C66.6996 31.3329 66.5206 31.7682 66.2383 32.1669C65.7748 31.8695 65.3144 31.5659 64.8594 31.256L65.5676 30.1255Z" fill="#F9F8F8"/>
<path d="M65.4951 26.6694C65.8079 26.1041 66.1228 25.5888 66.4606 25.0396C66.7651 25.5219 67.1501 26.1362 67.1939 26.7186C66.9899 26.9859 66.9273 27.1047 66.6083 27.237C66.2179 27.2583 65.8298 26.9085 65.4951 26.6694Z" fill="#F9F8F8"/>
<path d="M56.3828 32.7374C56.543 32.4389 56.6182 32.2456 56.8976 32.0449C57.3463 32.0602 57.5722 32.2927 57.9939 32.5511L57.8789 33.1139C57.5975 33.4039 57.3579 33.9056 57.1591 34.2745C56.8213 33.7623 56.6298 33.2934 56.3828 32.7374Z" fill="#F9F8F8"/>
<path d="M60.2576 34.3164C60.6719 34.3265 60.784 34.4068 61.1522 34.59C61.3824 34.9181 61.3278 34.7681 61.3697 35.1583L61.0757 35.7254C60.5046 35.8169 59.88 35.764 59.3203 35.6283C59.6874 35.2029 59.9512 34.7833 60.2576 34.3164Z" fill="#F9F8F8"/>
<path d="M62.427 23.5526C63.2075 23.5199 63.5109 23.5481 64.2809 23.6441C63.8531 24.0805 63.469 24.6284 63.1008 25.1217L62.0693 24.3936C62.2335 24.0818 62.3058 23.8811 62.427 23.5526Z" fill="#F9F8F8"/>
<path d="M56.5171 28.9707C56.8446 29.221 57.3218 29.5192 57.4547 29.8861C57.3918 30.1106 57.3938 30.1214 57.2777 30.3187C56.9536 30.6883 56.9337 30.845 56.5444 30.9347L56.1836 30.7055C56.2704 29.989 56.308 29.6744 56.5171 28.9707Z" fill="#F9F8F8"/>
<path d="M59.0879 25.12C59.6163 24.6755 60.0755 24.3936 60.699 24.1079C61.1372 24.8522 60.7303 25.1527 60.2281 25.7721C59.8192 25.5075 59.5221 25.344 59.0879 25.12Z" fill="#F9F8F8"/>
<path d="M65.9932 29.5538C66.5005 28.6983 66.4755 28.3543 67.4557 28.5891C67.4045 29.1365 67.2779 29.8102 67.0918 30.3334L65.9932 29.5538Z" fill="#F9F8F8"/>
<path d="M63.295 33.6025L64.427 34.239C63.9006 34.644 63.6957 34.8122 63.0868 35.1037L62.4277 34.8102C62.6673 34.5388 63.0722 33.9205 63.295 33.6025Z" fill="#F9F8F8"/>
<path d="M59.2737 28.4956L60.4549 29.1578C60.1997 29.5761 59.9601 30.0461 59.5677 30.3287C59.2999 30.6855 59.3617 30.5229 59.3019 30.9438C59.121 31.1916 58.6597 31.8545 58.4693 32.0433C58.1367 31.8671 57.7725 31.7092 57.5235 31.4331C57.4063 31.0517 57.4188 31.1927 57.6407 30.7554L57.6783 30.681L57.8007 30.2733C58.166 29.9939 58.2568 29.9403 58.5026 29.5536L59.2737 28.4956Z" fill="#F9F8F8"/>
<path d="M59.2738 28.4956L60.455 29.1578C60.1997 29.5761 59.9601 30.0461 59.568 30.3287C59.2101 30.0939 58.847 29.8111 58.5029 29.5536L59.2738 28.4956Z" fill="#F9F8F8"/>
<path d="M57.6787 30.681L57.8011 30.2733C58.1662 29.9939 58.2572 29.9403 58.5031 29.5537C58.8473 29.8112 59.2104 30.0939 59.5681 30.3287C59.3003 30.6855 59.3621 30.5229 59.3024 30.9439C58.9907 30.7046 58.6758 30.4294 58.3118 30.2935C57.9006 30.3507 58.023 30.3319 57.6787 30.681Z" fill="#D39C6F"/>
<path d="M62.7493 30.7197C63.1699 30.9473 63.4701 31.1922 63.8457 31.4811C63.6385 31.8329 63.3728 32.3202 63.1164 32.6187C62.9408 32.8371 62.7764 32.9881 62.7314 33.2567L61.882 34.3769C61.3798 34.0919 61.1968 33.9616 60.751 33.5927C61.0617 33.1776 61.2847 32.8499 61.5608 32.4108L61.6635 32.2776L61.9856 31.8275C62.2167 31.3997 62.4574 31.1014 62.7493 30.7197Z" fill="#F9F8F8"/>
<path d="M62.7491 30.7197C63.1696 30.9473 63.4698 31.1922 63.8454 31.4811C63.6383 31.8329 63.3725 32.3202 63.1162 32.6187C62.6842 32.377 62.3746 32.1267 61.9854 31.8275C62.2167 31.3997 62.4571 31.1014 62.7491 30.7197Z" fill="#F9F8F8"/>
<path d="M61.663 32.2772L61.9851 31.8271C62.3744 32.1265 62.684 32.3766 63.1162 32.6183C62.9403 32.8367 62.7762 32.9877 62.7312 33.2566C62.5929 33.1063 61.776 32.56 61.5605 32.4104L61.663 32.2772Z" fill="#D39C6F"/>
<path d="M61.6404 24.9658L62.8102 25.7675C62.5359 26.1526 62.2588 26.534 61.9753 26.9119C61.6478 26.6962 61.0725 26.3403 60.8047 26.0873C61.0127 25.8622 61.4407 25.239 61.6404 24.9658Z" fill="#F9F8F8"/>
<path d="M63.2683 26.1821C63.7799 26.2508 64.0929 26.5564 64.5081 26.8789C64.2559 27.2384 63.9924 27.6039 63.7475 27.9672L63.4504 27.9365C63.1459 27.7268 62.9032 27.5108 62.624 27.2702C62.8175 26.9038 63.0508 26.5365 63.2683 26.1821Z" fill="#F9F8F8"/>
<path d="M62.1643 27.7798C62.545 28.0511 62.7689 28.1897 63.179 28.4151C63.221 28.8921 62.86 29.3132 62.5712 29.7351C62.2061 29.5243 61.7155 29.2845 61.4717 28.9594L61.5157 28.7474C61.6527 28.6026 62.0334 27.9836 62.1643 27.7798Z" fill="#F9F8F8"/>
<path d="M63.8627 29.043C64.4381 29.3125 64.5772 29.3834 65.0533 29.8007C64.7866 30.2201 64.5501 30.5204 64.2414 30.9115L63.167 30.1777C63.3511 29.8122 63.6356 29.3948 63.8627 29.043Z" fill="#F9F8F8"/>
<path d="M60.385 26.6836C60.723 26.8619 61.2178 27.0675 61.384 27.392C61.4583 27.7129 61.3234 27.9123 61.1863 28.2256C61.0127 28.3673 61.0033 28.3787 60.8035 28.4756C60.4038 28.4523 60.0261 28.1067 59.6924 27.8585L60.385 26.6836Z" fill="#F9F8F8"/>
<path d="M59.1885 32.5479C59.2325 32.0918 59.6008 31.683 59.8799 31.3428L60.9555 32.0676C60.7191 32.4602 60.488 32.8518 60.2274 33.2301L59.1885 32.5479Z" fill="#F9F8F8"/>
<path d="M60.9924 29.6162C61.481 29.8499 61.687 30.0284 62.1161 30.3668L61.3816 31.3975C61.1179 31.397 60.5027 30.9214 60.2412 30.7433C60.4537 30.365 60.7414 29.9748 60.9924 29.6162Z" fill="#F9F8F8"/>
<path d="M65.0115 27.2241C65.4038 27.4993 65.8056 27.7617 66.2157 28.0106L65.428 29.1218C65.0598 28.8702 64.6683 28.6176 64.3379 28.3207L65.0115 27.2241Z" fill="#F9F8F8"/>
<path d="M56.1117 34.9785C57.3034 35.7387 56.9644 36.0751 59.0033 36.8434C58.1843 37.2529 57.5816 37.6014 56.798 38.0784C56.1285 38.5509 55.6797 38.9519 55.0654 39.4984C55.6931 37.9147 55.8806 36.6613 56.1117 34.9785Z" fill="#F9F8F8"/>
<path d="M32.5969 21.023C35.9426 20.7766 38.8562 23.2916 39.1103 26.6458C39.3644 30 36.8632 32.9279 33.519 33.1911C30.1624 33.4553 27.2299 30.9367 26.9748 27.5706C26.7196 24.2043 29.2392 21.2701 32.5969 21.023Z" fill="#567388"/>
<path d="M34.8965 22.3379C35.7679 22.7427 36.2707 23.1822 36.9622 23.8245C36.8524 24.3508 36.6922 25.512 36.4318 25.8457C35.9813 25.8475 35.4061 26.0942 34.9672 26.2512C34.6764 25.9139 33.691 25.262 33.2912 24.9951L32.8042 24.9911C32.7608 24.5511 32.8114 23.846 32.8302 23.3854L33.2993 23.3796C33.7747 22.9878 34.365 22.6577 34.8965 22.3379Z" fill="#F9F8F8"/>
<path d="M32.8302 23.3857L33.2993 23.3799C33.289 23.7968 33.2463 24.6124 33.2912 24.9954L32.8042 24.9914C32.7608 24.5514 32.8114 23.8463 32.8302 23.3857Z" fill="#67737F"/>
<path d="M34.9676 26.2516C35.4065 26.0944 35.9818 25.848 36.4322 25.8462L36.6362 26.1628C37.1509 26.4642 37.7379 26.9749 38.1459 27.4146C37.9545 28.2208 37.7849 29.0376 37.3686 29.763L35.4731 30.1037L34.5137 28.7812C34.7197 28.0982 34.9396 27.3989 35.1331 26.7141L34.9676 26.2516Z" fill="#F9F8F8"/>
<path d="M34.9668 26.2516C35.4057 26.0944 35.9808 25.848 36.4314 25.8462L36.6354 26.1628C36.1101 26.3732 35.6766 26.5425 35.1323 26.7141L34.9668 26.2516Z" fill="#67737F"/>
<path d="M31.1502 22.3311C31.6701 22.6338 32.377 23.0137 32.8298 23.3853C32.811 23.8459 32.7604 24.551 32.8038 24.9912C32.1231 25.413 31.7097 25.7631 31.0911 26.2744C30.5086 26.101 30.0379 25.9189 29.4755 25.7005C29.3438 25.1266 29.2603 24.4061 29.1758 23.8134C29.8422 23.137 30.3453 22.7903 31.1502 22.3311Z" fill="#F9F8F8"/>
<path d="M31.9047 29.0545C32.5722 28.9973 33.4657 29.0199 34.1563 29.0206L35.0958 30.3493C34.8819 30.8543 34.5708 31.6875 34.252 32.0981C33.3073 32.2351 32.6402 32.2216 31.7074 32.0586C31.5105 31.4811 31.2571 30.9239 31.0137 30.3641C31.2906 29.9096 31.5971 29.488 31.9047 29.0545Z" fill="#F9F8F8"/>
<path d="M29.3084 26.1899C29.8518 26.2942 30.4088 26.4694 30.9426 26.6243C31.1388 27.3541 31.3544 28.0194 31.5886 28.7373C31.2444 29.2501 30.9862 29.6137 30.5965 30.1014L28.6794 29.7496C28.2566 28.9631 28.123 28.2605 27.957 27.4023L29.3084 26.1899Z" fill="#F9F8F8"/>
<path d="M79.5892 53.7483C80.1111 53.7429 80.6836 53.768 81.2097 53.7801C81.2788 55.0714 81.2518 56.5008 81.2527 57.8035C82.0027 57.2021 82.779 56.8311 83.7519 56.7751C84.84 56.7047 85.9102 57.0783 86.7188 57.8105C88.5727 59.5023 88.4765 62.3978 86.7806 64.182C85.6162 65.193 83.9132 65.5702 82.4944 64.8732C82.1021 64.6801 81.6063 64.2744 81.1952 64.2125C81.1793 64.4677 81.1585 64.7225 81.1323 64.9768C80.782 65.1071 79.7263 65.0497 79.2973 65.0436L79.2921 57.2119C79.2921 56.6706 79.2566 54.258 79.336 53.8423L79.5892 53.7483ZM83.5438 58.4915C82.6524 58.535 81.8522 59.0558 81.4493 59.855C81.0455 60.6543 81.1021 61.6091 81.5967 62.355C82.0907 63.1013 82.9465 63.5238 83.8378 63.4615C85.1945 63.3666 86.2231 62.1933 86.1437 60.8312C86.0632 59.4688 84.9037 58.4252 83.5438 58.4915Z" fill="white"/>
<path d="M39.1133 53.7175C39.745 53.7099 40.4041 53.7301 41.038 53.7397C41.0705 55.0682 41.0486 56.4826 41.0474 57.8178C41.7713 57.2854 42.3093 56.9531 43.2153 56.8174C44.2927 56.662 45.3859 56.9479 46.2512 57.6104C48.2399 59.1335 48.2713 62.0228 46.8067 63.9308C45.6895 65.0637 44.1023 65.5324 42.5603 64.9769C42.0854 64.8061 41.3821 64.2474 40.972 64.3113C40.9669 64.6056 40.9689 64.6964 40.8946 64.9792C40.5233 65.1025 39.5504 65.0429 39.1099 65.0348C39.0169 61.4651 39.0672 57.2859 39.1133 53.7175ZM43.1755 58.4329C41.6083 58.8465 40.6564 59.9417 41.1103 61.6277C41.2935 62.2987 41.738 62.8674 42.3447 63.2046C42.8626 63.4906 43.2916 63.487 43.871 63.4917C47.1058 62.5164 46.1309 58.2652 43.1755 58.4329Z" fill="white"/>
<path d="M30.933 53.7386L30.914 57.7725C35.5175 54.5361 39.7458 59.9781 36.5978 63.9459C35.5296 65.0732 33.9071 65.5233 32.4351 65.0014C32.0023 64.8483 31.2629 64.3132 30.8583 64.3177C30.8473 64.6103 30.8455 64.7029 30.7708 64.9846C30.4028 65.1145 29.4104 65.0505 28.9727 65.0418L28.9852 53.7261L30.933 53.7386ZM35.7265 60.5522C35.5021 59.2091 34.2395 58.2989 32.8984 58.513C31.5417 58.7294 30.6207 60.0133 30.848 61.3721C31.075 62.7306 32.3631 63.6433 33.7163 63.4043C35.0536 63.1681 35.9511 61.895 35.7265 60.5522Z" fill="white"/>
<path d="M40.7081 28.7725C40.8671 28.8956 41.1036 29.1432 41.2604 29.29C42.2187 30.1918 43.2838 30.7499 44.4618 31.314C42.2794 34.4125 41.0136 35.6952 38.2757 38.1495C36.5787 39.6637 34.8938 41.1902 33.2198 42.7292C31.2864 40.839 30.1593 39.2744 28.9339 36.8481C28.0977 34.9489 27.7941 33.8135 27.251 31.8273C28.1646 32.7739 28.5966 33.1156 29.7231 33.787C30.5694 36.1906 31.6785 38.0676 33.2802 40.0189C34.1298 38.4096 35.2651 36.3884 36.6687 35.2223C37.7946 34.4271 38.4285 34.1842 38.9851 32.8292C39.5332 31.4981 40.1285 30.0965 40.7081 28.7725Z" fill="#567388"/>
<path d="M22.6749 56.6679C25.0325 56.445 27.1306 58.1639 27.3822 60.5249C27.6337 62.8858 25.9452 65.0106 23.5938 65.2921C22.0469 65.4773 20.5199 64.814 19.5967 63.5554C18.6737 62.2969 18.497 60.6379 19.1341 59.2123C19.7712 57.7867 21.1237 56.8148 22.6749 56.6679ZM25.5268 60.6051C25.3278 59.2571 24.0866 58.3189 22.7395 58.4976C21.8494 58.6158 21.0917 59.2058 20.7573 60.0414C20.4228 60.8769 20.5633 61.8285 21.125 62.531C21.687 63.2334 22.5825 63.5776 23.4686 63.4319C24.8094 63.2114 25.7259 61.9529 25.5268 60.6051Z" fill="white"/>
<path d="M7.52246 54.3136L9.60384 54.3125L9.59829 58.6525C11.4181 58.6418 13.2378 58.6436 15.0577 58.6579L15.0534 54.3147L17.1327 54.3195C17.1294 55.5143 17.2287 64.6998 17.0117 65.0508L15.059 65.0481C15.0489 63.5063 15.0476 61.9646 15.0545 60.4228C13.2483 60.4006 11.4035 60.4197 9.594 60.4185C9.61409 61.9495 9.59923 63.5137 9.601 65.0476L7.53367 65.0474L7.52246 54.3136Z" fill="white"/>
<path d="M58.0858 54.311L60.1237 54.324L60.1175 58.6587L65.523 58.6522C65.4886 57.2678 65.5356 55.7138 65.5503 54.3164L67.5704 54.3178L67.5766 61.5007C67.5766 62.2463 67.6227 64.3003 67.5328 64.9661L67.2816 65.0479L65.5114 65.0392C65.4875 63.5322 65.5282 61.9283 65.5439 60.4139L60.1164 60.4117V65.0601L58.0576 65.0367L58.0858 54.311Z" fill="white"/>
<path d="M46.4313 6.95286C48.1899 6.8721 49.1661 6.93178 50.8942 7.10959C50.1441 7.66335 49.8681 8.09345 49.3596 8.84672C40.6072 8.50778 34.3536 12.1906 30.4207 20.0474C30.3786 20.1306 28.1628 21.5203 27.7861 21.8152C28.506 19.2473 29.735 16.8516 31.3998 14.771C35.2809 9.89864 40.3719 7.62589 46.4313 6.95286Z" fill="#567388"/>
<path d="M55.073 56.8721L56.9384 56.8945C56.2908 58.6412 53.0728 66.8337 51.9313 67.5866C51.1488 68.1024 49.6853 68.084 48.7949 67.8918C48.4276 67.8124 48.2196 67.6955 48.0144 67.3814C47.9894 67.0129 48.3952 66.3796 48.5878 66.023C49.411 66.4063 49.8117 66.5693 50.7188 66.2377C51.2765 66.034 51.6197 65.3283 51.4071 64.791C50.3873 62.2129 49.0679 59.4447 47.916 56.9059L50.0074 56.9214C50.8016 58.8798 51.721 60.9042 52.557 62.8615C53.3657 60.891 54.1931 58.8016 55.073 56.8721Z" fill="white"/>
<path d="M75.815 56.8931L77.468 56.9115C77.4272 59.5714 77.4794 62.3741 77.4899 65.0448C76.9501 65.0472 76.175 65.1925 75.7387 64.9492C75.5148 64.6252 75.5868 64.6315 75.5672 64.1695C74.6444 64.8405 73.869 65.2533 72.687 65.1934C70.1844 65.0665 69.473 63.4315 69.3916 61.2474L69.3967 56.9256L71.351 56.9296C71.3448 58.0522 71.192 61.6655 71.602 62.4586C71.8333 62.906 72.2371 63.2391 72.7194 63.3806C73.3198 63.5629 73.8334 63.4559 74.3954 63.1976C76.2524 62.3438 75.1361 58.4981 75.5797 56.9848L75.815 56.8931Z" fill="white"/>
<path d="M67.1199 35.3374C67.1449 36.1483 65.4126 38.9612 64.9397 39.6673C62.2174 43.7362 57.1445 47.3568 52.2662 48.2063L52.2432 48.0969C52.693 47.2169 53.212 46.2589 54.1798 45.8411C57.1257 44.5666 60.4953 42.5116 62.4445 39.8893C64.2146 37.5078 64.7325 37.1211 67.1199 35.3374Z" fill="#E5914D"/>
<path d="M52.604 7.77097C53.2863 7.70634 53.7843 7.63628 54.4413 7.89076C55.2133 8.18961 55.8336 8.78649 56.1623 9.54763C56.5242 10.3571 56.543 11.2786 56.2166 12.1029C55.8325 13.0634 55.2697 13.5059 54.3691 13.8995C53.6776 14.0008 53.0863 14.0162 52.4293 13.7659C51.6815 13.4861 51.0799 12.9138 50.7607 12.1803C49.9364 10.293 50.7764 8.56871 52.604 7.77097Z" fill="#567388"/>
<path d="M57.7197 9.44141C58.1884 9.63032 58.9396 10.0726 59.3622 10.3602C63.7342 13.3363 66.903 17.7163 67.9973 22.8881C67.1844 22.3145 66.6269 21.9498 65.7628 21.4601C63.9716 17.1292 61.7768 14.173 57.8515 11.5752C57.8222 10.8779 57.7636 10.1415 57.7197 9.44141Z" fill="#E5914D"/>
<path d="M35.6078 42.3467C37.7211 44.3311 41.6809 46.092 44.5349 46.5544C45.1165 46.6486 46.5413 46.6111 46.9232 46.8576C46.986 47.7109 47.19 47.9466 47.6638 48.6476C47.4536 48.7768 47.0458 48.7115 46.7757 48.6963C42.071 48.627 37.7974 46.623 34.2305 43.6626L35.6078 42.3467Z" fill="#567388"/>
</svg>
